<svg id="776e3c47-baab-4cf6-bbe1-30994deb6f95" data-name="Arbustos" xmlns="http://www.w3.org/2000/svg" viewBox="0 0 1612.92 597.43"><title>fondoArtboard 1</title><path d="M243.21,597.43c.49-.53,1.94-.71,3.47-1,5.8-1.11,11.71-1.91,17.46-3.14,15.85-1.88,29.22-7.78,43-12.94,12.05-4.49,24.49-8.45,36.59-12.86a46.35,46.35,0,0,0,5.26-2.19c2.66-1,5.23-2.18,8.31-2.51.78-.23,1.55-.48,2.36-.65,2.14-.36,2.61.39,2.42,1.7a61.18,61.18,0,0,0-.17,7.05c-.09,2.19-.09,4.38-.1,6.92,6.59-4.08,12.9-7.93,19-11.93,3.46-2.25,6.62-4.87,11.37-6,5.42.45,10.83,1.06,16.25,1.31s11.09-.83,16.65-1.22c1.76-.12,3.51-.34,5.29-.35a58.37,58.37,0,0,0,11.19-.7,6.34,6.34,0,0,1,1.23,0,7,7,0,0,1,1.18.21c4.74,1.34,9,1.37,12-2.13,1-1.13,3-1.7,3.61-3a14.11,14.11,0,0,1,2.28-2.42c2-1.57,3.88-1.37,5.84,0a60.8,60.8,0,0,1,5.53,4.13c4.82,3.74,9.15,1.69,15.87,2,10.1.53,13.51-2.25,15.69-3.75,4.75-3.28,10.58-5.3,14.21-9.59,1.85-2.18,2.27-2.88,5.56-1.95a9.31,9.31,0,0,1,1.43.83,59.34,59.34,0,0,0,7.47,4.9c2.42,1.46,7.29,1.76,9.33,3.48.85.38,12.9.65,14.56-.3,2.12-1.84,4.25-6.48,6.24-8.38,4.57-4.37,5.65-4.44,11-.55,4.63,2.6,27.4,6.86,36.8,2.9,3.83-1.61,8.73-4.05,11.8-6.72a28.7,28.7,0,0,1,8.87-4.9,18.61,18.61,0,0,1,13.22-.29c9.14,1.55,18.26,0,27.31,1.75,2.23.44,4.6-2.57,6.48-3.53a6,6,0,0,1,2.13-.82c6.46-.6,12.34,2.69,19.08,2.5,4-.11,8.42.74,12.34-.86.81-.33,1.87.06,2.81.15a45,45,0,0,0,4.66.36c1.81-.08.09-.65.16-1-1.31-1.07-3.06-.66-4.63-.62-4.81.14-6.24-.82-8.88-3.6A22,22,0,0,1,701,514.5c-.32-2.94-2-5.66-1.9-8.59,0-.56,0-1.11,0-1.67-.31-2.8,3-4.51,4.6-6.7.88-1.23,4.85-.55,7.22,0a16.58,16.58,0,0,0,7.92,0,5.82,5.82,0,0,1,2.88.92c2.7,1.22,5.39,2,8.59.61,3-1.29,5.6,1,8.56.74,3.3.22,5.9-.4,9.59-1,1.33-.23,9.2,1.47,10.25,1.76,2.88.79,12.27-6.33,14.28-5a4.68,4.68,0,0,1,2.11,3.93A6.39,6.39,0,0,0,776.8,504c1-1.9.17-3.38-.42-4.71-2-4.65.53-8.23,4.82-11.24,2.69-1.89,5.62-3.61,8.49-5.36,3.12-2.85,4.27-2.74,7.44.24,4.56,4.28,17,13.62,22.73,14.13,3.76.33,13.86-3,17.16-6.42.82-.84,3.1-3.4,4.91-3.33.92.18,6.67,4.08,7,4.65,1,1.59,4.08,9.65,13.65,16.09,6.82,4.59,17.9,7.27,19,7.76,3.15,1.37,5.79,1.33,8.54-.37.91-.57,2-1,2.92-1.58,4-1.93,3.94-2.56-.63-5.89-2-1.68-9.74-13.43-11.33-15.32s-1.3-2.73,2-3.16c6-.78,14.6,3.89,20.63,3.25,1.75-.19,7.16.76,8.88.46s3.85-.61,3.4-2.48c.25-2.36-.32-4.74.19-7.1.57-.35,1.78-.22,1.67-1.08-.11-.24-.2-.47-.3-.7-1.22-2.28-.75-4.43.59-6.64.6-1,1.52-2,1.21-3.25a2.41,2.41,0,0,1-.32-1.55c2.66-1.43,10.68,5.31,12.55,6.39,4.9,2.8,6.17-.8,9.9,2.92,2.8,2.79,7.4,4.35,9.8,7.36a3.54,3.54,0,0,0,2.62,1.42c.39-2-2.73-2.39-3.33-3.79-3.25-4.21,7.81,1.71,11.35-1.87,1.92-1.94,3.4-4.12,5.91-5.72,4.36-2.78,7.14-6.49,11.55-9.21a5.77,5.77,0,0,1,3.46-1.27,26.49,26.49,0,0,0,7.33-1c2.93,1.42,5,2.85,6.32,5.61s1.25-3.14,3.48-.32c1.06,1.33,3.15.78,4.81.27,4.11-1.27,8.33-2.35,12.59-3.34,3.49,0,2.7,1.46,1.73,2.65-2.36,2.93,8,4.84,6.33,8,.16,2.78,5.19,1.19,7.21,3.5,8.32.9,3.61-.18,9.44-2.32.38-1.19,10.76-4.22,11.09-5.43,4.14-4.22,6.73-9.14,12-12.87,1.85-.49,10.12-4.16,12.08-4.33,3.47-.58,6.91-1.28,10.45-1.55,4.1-.31,5.23.69,4.34,3.51a11,11,0,0,1-.44,1.11c-1.68,3.84,4.2,3.38,9.84,3.3,11.92-.18,12.65,1.91,24.56,1.37,3.51-.79,6.06.93,9.66.34a31.3,31.3,0,0,0,9-2.77,23.67,23.67,0,0,1,7.06-1.37c1.85-.18,3.9,0,5.32-1.14a27.74,27.74,0,0,1,8.71-1c2.34.2,4.13-.67,4.65-2.49a21.8,21.8,0,0,0,1.06-3.61c-2.25-3.88-5.27-7.61-5-12-1-2.13,1.2-4.64-1.66-6.54-.64-3.12-2.08-6.32,1.66-9.06a1.36,1.36,0,0,0,.4-1.36c-.14-1.43,1.2-1.82,2.85-1.81a27.21,27.21,0,0,1,6.46.57,13.42,13.42,0,0,0,6.36.49,1.47,1.47,0,0,1,.8,0c5.9,3.2,12.79.78,19.09,1.64,3.34.45,6.1,2.15,9.64,2.17,2.78,0,3.95,1.45,5.16,2.87,1,1.22,2.18,2.35,4.45,1a4.89,4.89,0,0,1,1.09-.3,3.13,3.13,0,0,1,2.34,1.14c.84,1.13,2.16.6,3.45.25,1.12-.31,6.27-3.79,7.07-4.06a5,5,0,0,0,2.68-1.88,31.61,31.61,0,0,1,8.66-5.91,10.08,10.08,0,0,0,2.52-1.36c2.83-2.46,3.64-2.43,6.28.21a13.07,13.07,0,0,1,1.25,1.44c5.32,4.29,8.18,9.38,13.11,13.51.82.69,6.7,2.31,10.19,1.56,2.23-.47,3-1.59,5.5-3.75a7.26,7.26,0,0,1,4.23-1.69,12.68,12.68,0,0,1,4.63,1.09c4.9,2.22,10.93,2.95,15.37,5.77a2,2,0,0,0,2.94-.45c.13-.17.26-.43.47-.46,6.84-1,7.27-5.23,9.79-8.69,1.74-2.38,2.36-5.73,6.81-7,.6-.17.65-.81.83-1.27a11.24,11.24,0,0,1,1.11-2.27c.8-1.14,2.91-1.67,3-3.15a2.5,2.5,0,0,1,.67-1.1c2.49-1.62,6.42-.93,8.91-2.71.55-.39,1.76.32,2.45.78,1.88,1.25,6.69-.66,8.44.68,3.09,2.36,6.06,4.71,7.83,7.7a2.38,2.38,0,0,0,1.54.91c5.61,1.07,6,3.46,8.42,6.7.25.33.25,1.79.67,2.08.82.07,5.08-3,5.13-3.29.9-6,1.11-4.42,8-7.62,3.86-1.8,4-2.06.88-4.21-4-2.82-3.79-6-2.34-9.35a1.54,1.54,0,0,0-.16-1.63c-.77-2,.56-4.06-.67-6a5.78,5.78,0,0,0,1.3-5.39c-.54-2,.76-3.93,1.24-5.9.11-.47.58-.87.67-1.35.62-3.4,1.44-3.8,5.59-1.76,3.42,1.68,7,3.24,10.14,5.19,1,.73,2.37,1.24,3.4,2,.4.26.77.55,1.15.83a10.34,10.34,0,0,1,4.15,3.54,54.63,54.63,0,0,1,9.91,6.27c-1.16-2.93-4.91-4.91-5.47-7.95,1.87-3.2,3.56-6.46,6.34-9.36a4.22,4.22,0,0,1,.47-.73c1.54-1.45,4.12-2.34,4.76-4.28.8-1.78,4.4-.77,5.2-2.55,1.52-2.08,4.45-3.27,6.48-5,1.27-1.1,3.16-.35,4.53-.81,4.44-1.51,6.87.08,8.87,2.55,1.46,1.36,2.31,3.05,4.66,3.91a8.53,8.53,0,0,1,3.45,2.44c1.63,2.13,3.84,2.33,6.88,3.5a36.35,36.35,0,0,1,11.17,7.1c1,1.24,3.5,5,6.5,5.08,4.5.13,4.36-1.67,8.87-3.62,3-1.32,5.72-.5,5.87,2.8.05,1.15,0,2.29,0,3.44,0,1.3,0,2.4,2.62,2.62,2.79.24,2.44,1.93,1.84,3.15-1.42,2.9,4.37.92,2.57,3.74-.66,1-.88,2.06.51,2.88a56.88,56.88,0,0,0,8.54,4.43c-2.23-2.36-1.73-5-2-7.54-.45-4.23,3.5-2.15,4.84-1.59,3,.43,2.6,6.14,5.87,5.36,1-.23,1.77.37,2.61.69,3.08,1.17,6.07,2.09,9.63.58,1.82-.77,4.07.06,6,.31,4.52.58,8.58,2.3,13.18,2.8,1.78,2.37,3.44.71,5.12-.09,2.55-1.29,5-2.71,8.55-1.83a3.34,3.34,0,0,0,2.93-.75c2.29-2,5.81-3.17,8-5.27,1.81-1.74,3.76-1.53,5.15.15,1.92,2.31,4.54,4.27,6.45,6.58,3.09,3.73,3.15,3.75,9.29,2.78,3.3.07,7.07-1.45,10.34.28,0,15.78,0,137.95,0,181.93Z" style="fill:#1f512c"/></svg>