<svg id="95564aa8-312e-4272-b15e-76ff3a329aa8" data-name="Arbustos" xmlns="http://www.w3.org/2000/svg" viewBox="0 0 1612.92 597.43"><title>fondoArtboard 1</title><path d="M296.42,597.43c.47-.51,1.86-.68,3.33-1,5.57-1.07,11.25-1.84,16.78-3,15.23-1.8,28.09-7.48,41.37-12.43,11.58-4.32,23.54-8.12,35.17-12.36a44.55,44.55,0,0,0,5.06-2.1,31.1,31.1,0,0,1,8-2.41c.75-.22,1.49-.46,2.27-.63,2.06-.35,2.51.37,2.33,1.63a58.8,58.8,0,0,0-.16,6.78c-.09,2.1-.09,4.21-.09,6.65,6.34-3.92,12.4-7.62,18.3-11.46,3.33-2.17,6.36-4.68,10.93-5.73,5.21.44,10.41,1,15.62,1.26s10.66-.8,16-1.17c1.69-.12,3.38-.32,5.08-.34a56.11,56.11,0,0,0,10.75-.67,6.1,6.1,0,0,1,1.18,0,6.74,6.74,0,0,1,1.13.21c4.55,1.29,8.6,1.32,11.5-2,.93-1.08,2.85-1.63,3.47-2.92a13.56,13.56,0,0,1,2.19-2.33c1.9-1.51,3.73-1.32,5.61,0a58.44,58.44,0,0,1,5.32,4c4.63,3.59,10.75,4.06,17.21,4.4,9.71.51,19.48.44,29.12,1.47,3.27.35,5.2-.29,6.07-2.68a129.9,129.9,0,0,1,5.63-14.05c1.22-2.46,2.19-2.77,5.35-1.87a9,9,0,0,1,1.37.8,57,57,0,0,0,7.18,4.71,49,49,0,0,1,6.3,4.67c.82.36,1,1.69,2.63.77,2-1.77,4.09-3.53,6-5.35,4.39-4.2,5.43-4.27,10.58-.52,4.45,2.5,7.92,5.73,12.49,8.14,2.45,1.53,4.81,3.12,7.16,4.73,2.77,1.91,3.28,1.84,5.18-.45,3.95-4.76,7.66-9.61,12-14.21,3.2-2.39,6.93-4.4,9.89-7a27.59,27.59,0,0,1,8.52-4.71,17.89,17.89,0,0,1,12.71-.28c8.78,1.49,17.55,3,26.25,4.73,2.15.43,4.26.92,7.12,1.48-2.19-.94-2.7-1.77-.9-2.69a5.75,5.75,0,0,1,2.05-.79c6.21-.58,11.87-2.64,18.34-2.83,3.87-.11,8.1.71,11.87-.82.78-.32,1.8.06,2.7.15a43.22,43.22,0,0,0,4.48.35c1.74-.07.09-.62.16-.94-1.26-1-2.94-.63-4.45-.59-4.62.13-6-.79-8.53-3.46a21.17,21.17,0,0,1-5.64-12.82c-.31-2.83-1.92-5.44-1.83-8.26,0-.53,0-1.07,0-1.6-.3-2.69,2.92-4.34,4.43-6.44.85-1.19,4.66-.53,6.94,0a15.93,15.93,0,0,0,7.61,0,5.6,5.6,0,0,1,2.77.89c2.6,1.18,5.18,1.91,8.26.58,2.89-1.24,5.38,1,8.22.71,3.17.22,5.77,2,9.32,1.44,1.28-.22,2.18.88,2.84,1.7a20.87,20.87,0,0,0,4.68,4.41,4.5,4.5,0,0,1,2,3.77,6.14,6.14,0,0,0,1.68,4.25c1-1.83.16-3.25-.4-4.52-2-4.47,1.16-7.61,5.28-10.51,2.58-1.82,5.4-3.47,8.16-5.16,3-2.74,4.11-2.63,7.15.23,4.38,4.12,7.45,8.71,10.53,13.31,1,1.42,3.73,2.47,2,4.47-.32.64-1.69,1.22-.2,2a4.9,4.9,0,0,0,1.05.2,169.7,169.7,0,0,1,17.86.54c1.3,0,2.6,0,3.9,0,10.83.64,21.62,1.56,32.5,1.84,3.22.08,5.25-.55,6.84-2.36,2.94-3.37,6.94-6.19,10.11-9.45a4.09,4.09,0,0,1,3.37-1.64,2.65,2.65,0,0,1,1.7,1.18c1.39,2.77,3,5.48,3.86,8.38.53,1.83,1.92,3.08,4.5,3.86a74.2,74.2,0,0,1,8.12,2.82c3,1.32,5.57,1.28,8.21-.36.88-.54,1.88-1,2.81-1.52,3.85-1.85,3.79-2.46-.61-5.66a42.37,42.37,0,0,1-5.33-5.1c-1.62-1.92-1.25-2.63,1.91-3,5.8-.75,11.69-1.12,17.43-2.09a39.87,39.87,0,0,0,5.07-.14c1.73-.3,3.7-.58,3.27-2.38.24-2.27-.31-4.55.18-6.82.55-.34,1.71-.21,1.61-1-.1-.23-.19-.45-.29-.67-1.17-2.19-.73-4.25.57-6.39.58-.95,1.46-2,1.16-3.13a2.32,2.32,0,0,1-.31-1.49c2.55-1.37,4.8-.31,6.61.72,4.71,2.7,10.61,4.43,14.21,8,2.7,2.68,7.12,4.19,9.42,7.08a3.4,3.4,0,0,0,2.52,1.37c.38-1.91-2.62-2.3-3.2-3.64-3.12-4-1-7.42,2.39-10.86,1.84-1.86,3.27-4,5.68-5.5,4.19-2.67,6.86-6.23,11.11-8.85a5.55,5.55,0,0,1,3.33-1.22,25.47,25.47,0,0,0,7-.93c2.82,1.37,4.77,2.74,6.07,5.39a49.49,49.49,0,0,0,5.71,8.34c1,1.27,3,.75,4.62.26,4-1.22,8-2.26,12.1-3.21,3.35,0,2.59,1.4,1.67,2.55a56.21,56.21,0,0,0-5.62,8.78c.15,2.67,1.78,5,3.72,7.18,8,.87,16,.26,24,.34a2.17,2.17,0,0,0,2.54-2c.93-5.47,2.58-10.86,3.46-16.34.36-1.14,1.92-1.85,2.24-3,4-4.05,6.47-8.78,11.51-12.37a33.1,33.1,0,0,1,5.51-.95c3.33-.55,6.64-1.23,10-1.49,3.94-.3,5,.66,4.17,3.37a10.6,10.6,0,0,1-.42,1.06c-1.62,3.69-1.61,3.76,3.81,3.68,11.45-.18,22.91.36,34.35-.16,3.38-.76,6.83-1.35,10.29-1.92,5.12-.85,6.29-.52,8.93,2.74,2.07,2.56,4.23,5.07,6.51,7.54,2.67,2.89,3.38,3,8.75,1.37-3.61-1.79-4.91-4.81-8.72-6.45-3.31-1.43-4.27-4.51-7.85-6-1.39-.57.06-1.46,1-1.89a22.75,22.75,0,0,1,6.79-1.32c1.77-.18,3.75,0,5.12-1.1a26.66,26.66,0,0,1,8.38-1c2.25.2,4-.65,4.47-2.39a21,21,0,0,0,1-3.47c-2.16-3.73-5.06-7.31-4.85-11.52-.92-2,1.16-4.46-1.59-6.29-.62-3-2-6.07,1.59-8.71a1.31,1.31,0,0,0,.39-1.31c-.13-1.38,1.15-1.75,2.74-1.74a26.16,26.16,0,0,1,6.21.55,12.9,12.9,0,0,0,6.11.48,1.41,1.41,0,0,1,.77,0c5.67,3.08,12.29.75,18.35,1.57,3.21.44,5.87,2.07,9.27,2.08,2.67,0,3.8,1.39,5,2.76,1,1.17,2.1,2.26,4.27,1a4.7,4.7,0,0,1,1-.29,2.32,2.32,0,0,1,2,.53c-.51,2.21-2,4.32-1.45,6.66a4.07,4.07,0,0,0,2.14,3.35c.44-3.69-2.88-6.78-.64-9.93-.78-.74,0-1.16.76-1.42a4.84,4.84,0,0,0,2.58-1.81,30.38,30.38,0,0,1,8.32-5.68,9.68,9.68,0,0,0,2.42-1.31c2.72-2.37,3.5-2.33,6,.2a12.56,12.56,0,0,1,1.2,1.38c5.11,4.13,8.06,9.15,11.86,13.82a1.91,1.91,0,0,1,.23,2.37c-1.07,1.78-1.44,3.71-2.63,5.45a27.48,27.48,0,0,1-3.15,2.51,10,10,0,0,0,2.91-1.32c3-1.55,6.75-1.33,10.11-2,2.14-.46,2.62.78,2.32,2.05-.49,2.14.42,2.79,3.33,1.64s5.86-.27,8.66.57l1.45.43c5.62,1.74,5.5,1.74,5.26-2.48-.26-4.71-.85-9.4-1.19-14.1-.08-1.17.82-1.47,2.16-1.41a12.19,12.19,0,0,1,4.45,1c4.71,2.13,10.51,2.83,14.77,5.55a1.89,1.89,0,0,0,2.83-.43c.13-.16.25-.41.45-.44,6.57-1,7-5,9.41-8.36,1.67-2.29,2.27-5.51,6.55-6.74.58-.17.62-.78.8-1.22a10.8,10.8,0,0,1,1.07-2.19c.77-1.09,2.8-1.61,2.86-3a2.4,2.4,0,0,1,.65-1.05c2.4-1.55,6.17-.9,8.56-2.6.53-.38,1.69.31,2.35.75,1.81,1.2,3.4,2.55,5.08,3.83,3,2.27,5.83,4.53,7.53,7.4a2.29,2.29,0,0,0,1.48.87c5.39,1,7.84,4.06,10.2,7.17a3.72,3.72,0,0,0,.84.94c.79.07.76-.43.8-.71.87-5.81,5.92-9.55,12.52-12.63,3.71-1.73,3.8-2,.85-4-3.89-2.71-3.64-5.76-2.25-9a1.48,1.48,0,0,0-.15-1.56c-.74-1.9.54-3.9-.64-5.77a5.55,5.55,0,0,0,1.25-5.18c-.52-1.93.73-3.78,1.19-5.67.11-.45.56-.84.64-1.29.59-3.26,1.39-3.65,5.37-1.69,3.28,1.61,6.72,3.12,9.75,5,1,.7,2.28,1.19,3.26,1.91.38.25.74.53,1.1.8a9.94,9.94,0,0,1,4,3.4,52.51,52.51,0,0,1,9.53,6c-1.12-2.82-4.72-4.72-5.26-7.64,1.8-3.07,3.42-6.21,6.1-9a4.06,4.06,0,0,1,.45-.7c1.48-1.4,4-2.25,4.58-4.12.77-1.71,4.23-.74,5-2.45,1.47-2,4.28-3.14,6.23-4.83,1.22-1.06,3-.33,4.35-.78,4.27-1.45,6.61.08,8.53,2.45,1.4,1.31,2.22,2.93,4.48,3.76,1.43.52,1.14,1.53,1.3,2.43.37,2.08,1.49,3.72,4.41,4.84,4.78,1.84,5.82,5.44,7.45,8.7.21.43.25.9.44,1.34.85.8,2.14,1.46,1.85,2.65-.14.35,0-.1,0,.26-.16.85-1.57,1.79-.58,2.46,1.16.78,2.53-.32,3.84-.45,4.54-1.22,9-2.65,13.54-3.81,4.26-1.08,5.5-.48,5.64,2.69.05,1.1,0,2.2,0,3.3s0,2.31,2.51,2.52c2.68.23,2.35,1.85,1.77,3-1.36,2.78-1.56,5.78-3.29,8.48-.63,1-.85,2,.49,2.77a54.67,54.67,0,0,0,8.21,4.26c-2.14-2.27-1.66-4.82-1.92-7.24-.44-4.07,4.73-7.21,10.41-6.42,2.93.41,5.72,1.43,8.86.69.93-.22,1.7.36,2.51.67,3,1.12,5.83,2,9.26.56,1.75-.74,3.91.06,5.78.3,4.34.55,8.25,2.21,12.67,2.69,1.72,2.28,3.31.68,4.92-.08,2.45-1.24,4.81-2.6,8.22-1.76a3.21,3.21,0,0,0,2.81-.72c2.2-2,5.59-3,7.7-5.07,1.74-1.67,3.61-1.47,5,.15,1.84,2.22,4.36,4.11,6.2,6.32,3,3.58,3,3.6,8.93,2.68,3.17.06,6.78-1.39,9.92.27,0,15.16,0,132.59,0,174.87Z" style="fill:#1f512c"/></svg>