<svg id="a9869007-afe5-44a1-bc5e-768e67e2afa4" data-name="Montañas Cercanas" xmlns="http://www.w3.org/2000/svg" viewBox="0 0 1612.92 597.43"><title>campoArtboard 1</title><path d="M460.76,316.12l-.1.21,0-.18S460.73,316.12,460.76,316.12Z" style="fill:#8f9883"/><path d="M686.25,294.2c-.13-.09-.3-.16-.46-.25l.1,0Z" style="fill:#8f9883"/><path d="M687.07,294.75s0,0,0,0v-.07S687.07,294.73,687.07,294.75Z" style="fill:#8f9883"/><path d="M805,274.34a5.43,5.43,0,0,0-.59-.11.47.47,0,0,0,.13-.11.16.16,0,0,0,.07-.09A4.85,4.85,0,0,1,805,274.34Z" style="fill:#8f9883"/><path d="M1038.31,262.23c-.3.11-.59.21-.86.3a.47.47,0,0,0,0-.3s0,0,0-.07Z" style="fill:#8f9883"/><path d="M1610.78,245.65v105H1099.29l0,0c-.89-.37-15-6.41-15.3-10.32-4.29-2.21-6.6-6.48-9.4-11.06s-5.84-9.22-11.58-12.69c-3.17-5,7.55-20.78,12.43-27.44,0,0,.1-.09.1-.14a5.28,5.28,0,0,1,.4-.53l.1-.14.43-.6.4-.53a5.14,5.14,0,0,0,.46-.64,1.25,1.25,0,0,0,.23-.32l.1-.09,0,0v0l.07-.09-.46-.07c-.59-2.8,2.34-4.83,4.06-6.87,2.94-3.54,5-7.33,7.75-11,1.55,2.67,1.68,2.71.36,5.29-.73,1.36.76,2.46.46,3.75a10.47,10.47,0,0,0,6.56,4.14c4.25.67,3.69,6.14,5.64,6.62s2.74-3.17,6.86-3.08c-2.08-3.72-1.91-6.37,1.09-7.68a61.76,61.76,0,0,0,10.85-5.77c0,.34.26.6.66.85l7.55,4.34c-2.44-1.06-5.87-1.29-7.16-3.36.1.83-.13,1.7,1.29,2.09,4.88,1.33,9,4.23,14.81,3.49a4,4,0,0,0,1.68-.48c2.11-2.41-.66-4.92.46-7.45a96.24,96.24,0,0,0,3.36-10.16c0-.07,0-.14.07-.21v0c0-.14.1-.28.13-.41-2.84-.11-2.47-2.25-3-3.15s-1-1.61-1.52-2.37a6.74,6.74,0,0,0-.53-.74c-.46-.67-1-1.31-1.48-2s-1.25-1.54-1.95-2.3c-.49-.55-1-1.1-1.55-1.65s-.82-.9-1.29-1.36c-2.84-2.87-5.87-5.68-8.77-8.53-.36-.37-.76-.74-1.12-1.1-1-.92-1.85-1.86-2.74-2.8a.44.44,0,0,0-.23-.14s0,0,0,0l0,0a7.89,7.89,0,0,0-2.47-1.47c-.69-.32-1.45-.6-2.24-.87a34.63,34.63,0,0,0-6.2-1.45c-2.84-.34-5.11-1-6.37-2.21-.76-.71-.26-1.61.33-2.41a14.18,14.18,0,0,0,.89-1.33c-.36-.21-1.65.28-2.18.48l-.23.09c-1.09.37-2.51.9-2.14,1.75a4.08,4.08,0,0,1,.36,1.61v0a5.14,5.14,0,0,1-.69,1.54,2.24,2.24,0,0,1-.49.39,2.57,2.57,0,0,1-.56.34,5.72,5.72,0,0,1-.89.39c-.26.09-.53.18-.79.25a3.28,3.28,0,0,1-.36.09c-.26.07-.49.14-.76.18-.49.11-1,.18-1.45.28l-.69.14c-4.75.94-9.43,2-14.12,3.06-3.5.8-7,1.59-10.52,2.3a11.79,11.79,0,0,0-1.52.39l-20.68,3.65-.53.09-.43.07c-2,.76-.82,2.83-3.17,3.59-.73.23-1.48.46-2.21.71-8,2.55-16,5.22-24.11,7.79-6.17,2-12.7,3.49-16.85,7.31a11.42,11.42,0,0,0-2.18,2.48c-.56.87-2.41,1.56-1.55,2.57.69.8,2.51.44,3.73.32,9.43-1,18.86-2,28.3-3,3.2-.34,6.36-1.13,10.62-.83,0,0,0,0,0,.07a.47.47,0,0,1,0,.3c-2.18.78-3.63,1.31-5.11,1.75-12.2,3.54-24.41,7.13-36.71,10.5-4.68,1.29-9.07,3.45-14.58,2.87s-11.21-.83-16.79-1.31c-9.63-.8-19.29-1.59-28.92-1.86-11-.34-22-1-33-1.43-5.87-.21-11.84.16-17.68-.71-1.09-.16-2.57-.64-3.2.23s1,1.33,1.75,1.88c.46.32,1.19.46,1.65.76,4.19,2.62,9.4,4.46,12.86,7.81-7.78-1.06-15.47-2-23.15-3-10.16-1.29-20.15-3.33-30.34-4.39a24.58,24.58,0,0,1-10.88-3.84c-8.28-5-16.79-9.42-28.1-10.87-.69-.09-1.42-.18-2.11-.3-8.48-1.22-16.75-3.19-25.16-4.8-.63-.14-1.39-.37-1.78.07-.56.62.33.92.89,1.26,1.95,1.17,3.89,2.32,5.84,3.47,4.16,2.46,8.28,4.94,12.24,7.52,2.9,1.88,6.5,3.29,9.47,5.86a.16.16,0,0,1-.07.09.47.47,0,0,1-.13.11c-1.45-.3-2.41-.46-3.33-.71-16.56-4.3-33-8.64-49.63-12.87l-.79-.21c-4-1-7.82-2.67-12.33-2.67-14.64,0-29.29,0-43.93,0-1,0-2.37-.46-3.17.83,1.65.64,3.27,1.33,4.91,2a51.14,51.14,0,0,0,5.71,2,145.3,145.3,0,0,1,18.34,6.55c6.1,2.62,11.51,6,17.18,9.08,1.55.85,2.74,2,4.65,2.51,16.46,4.71,33,9.24,49.73,13.35a9.48,9.48,0,0,1,5.64,3.17s2.7,2.32,6.3,6.09c9.93,10.55,26.55,32.43,9.79,47.23H476a152.85,152.85,0,0,0-1.78-33.9,96.23,96.23,0,0,0-8-26.13.27.27,0,0,1-.07-.14c-.4-1.24-.76-2.51-1.06-3.77a.11.11,0,0,1,0-.09l.49.48c1.29,1.06,3,2.53,4.91,4.18a.52.52,0,0,1,.2.16c3.3,2.85,7.09,6.27,10.19,9.42,0,0,0,0,.07,0,.73.74,1.42,1.47,2,2.18.43.46.82.92,1.22,1.36.53.64,1,1.29,1.42,1.86,6.83,9.86,18,44.27,18,44.27H733s-1.75-14.8-10.62-19.81-18.8-8.76-24-15.79c-3.23-4.39-3.26-9-5.28-13.4-.07,0-.07-.07-.07-.12a16.83,16.83,0,0,0-5.94-6.71s0,0,0,0a1.4,1.4,0,0,0-.23-.16c-.16-.11-.36-.25-.56-.37a1.1,1.1,0,0,0-.36-.23c-1.65-.9-3.76-1.1-5.77-1.49l-.13,0-2.47-.64,0,0-.07,0a87,87,0,0,1-13.69-7.22,51.2,51.2,0,0,0-15.5-5.7c-10.59-2.37-21.37-4.34-32-6.83-7.65-1.79-15.27-3.56-23.12-4.92-1.88-.34-2.08-1.38-1.85-2.39a7.36,7.36,0,0,0,0-4.07c-.82-2.62-3.56-4.41-8.41-5.7-5.21-1.38-10-3-15.8-2.71-4.85.21-9.76,0-14.61.18a7.41,7.41,0,0,1-4.16-1.22,124.81,124.81,0,0,0-24.11-8.5C516,240.57,508,238,499.81,235.84c-24.87-6.44-48.35-14.92-72.62-22.25a14.23,14.23,0,0,1-4.91-2.64c-4.45-3.61-9-7.1-13.62-10.64-1.68-1.29-3.13-2.32-6.33-1.61-9.79,2.21-19.62,4.32-29.55,6.3-10.95,2.16-21.7,4.8-32.49,7.33-1.81.44-3.92.18-5.38,1.29a4.21,4.21,0,0,1,0-.64,1.4,1.4,0,0,0-.43.74,1.69,1.69,0,0,0-.3,0l-1.55.34c-.16,0-.33.07-.53.11l-2.47.51-1.22.28-3.5.74-2.08.44-3.07.64-3.56.76-5.47,1.17-3.56.76c-.76.14-1.48.3-2.18.46l-6.73,1.43-1.09.23c-.3.07-.59.14-.86.18l-1.62.34-1.39.3-1.48.34c-7,1.45-13.92,3-21,4.25-2.94.53-5.61,2-8.9,1.49v.25c0,.3,0,.6,0,.9a3,3,0,0,0,0,.53,7.08,7.08,0,0,0,3.36.28c9.23-1,18.44-2,27.54-3.52l.23,0a1.61,1.61,0,0,0,.3,0l.26,0h.1a1,1,0,0,1,.26,0c.66-.07,1.58-.14,2.7-.23,6.3-.57,18.57-1.72,23-2.76.89-.21,2-.41,3.36-.62l.2,0,14.15-1.72.63-.09,4.35-.53.4,0,.26,0a.9.9,0,0,0,.26,0l.2,0,5.08-.62c1-.12,1.95-.25,2.9-.39,1.81-.23,3.66-.51,5.47-.78,6.63-1,13.32-1.7,20-2.53a35.55,35.55,0,0,1,7.65-.34l-.59.25-.66.28c-1.81.76-5.54,2.34-10.62,4.53a.3.3,0,0,0-.13,0l-.26.11c-8.71,3.4-17.48,6.73-26.25,10.09a18,18,0,0,1-5,1.56c0-.11,0-.25.07-.37a5.75,5.75,0,0,0-.56.23,9.09,9.09,0,0,0-1.52,3.22c-15.4,7-32.68,15.22-48.25,23.26-.86.46-1.72.92-2.57,1.36-10.69,5.61-20.45,11.15-28.1,16.16q-2.08,1.38-4,2.69c-6.1,4.32-16.69,2.51-24.87,4.55s-19.66,7.72-21.5,13.74c-1.78,5.68-6.56,21.93-11.68,26C179.48,338.72,165,350.65,165,350.65H.79V223.57c1.65-1,3.73-.71,5.67-.83,3-.16,5.08-1,5.47-3.19.56-3.33,3.26-6,5.87-8.6,1.85-1.86,4.16-3.72,8-3.22,3,.39,7.06,3.63,7.59,5.88.26,1.22,0,2.53,1,3.88a7.42,7.42,0,0,0,2.87-2.32c.53-.51.79-1.17,1.35-1.65,2.37-2,4.78-4.28,9-3.7a8.3,8.3,0,0,1,7.19,5.68c2.31,6.27,2.21,6.3,11.31,5.72a10.24,10.24,0,0,1,1.19,0c14.38.3,28.69-.53,43-.57,0,0,15-1.06,24.31-.67,1.75.07,3.43.16,5.08.25,7.32.44,13.88,1.08,19.26,1.08a129.9,129.9,0,0,0,16.32-1.56c5.51-1.1,11.15-.74,16.72-.8,2.08,0,4.19-.11,6.27,0,3.23.21,6.23,0,8.74-1.22a.21.21,0,0,0,.1,0c.2-.07.82-.28,1.78-.53a46.55,46.55,0,0,1,10.12-1.75c5.8-.32,15.47.69,21.44.74.56,0,1.09,0,1.58,0,4-.12,10.72-.51,14-.71l1.19-.07c7.35-1.59,15-2.23,22.56-3.31,6.53-.94,13.06-1.88,19.62-2.69.3,0,.56-.07.86-.11l.1,0c.33-.11,1.55-.53,3-1,.46-.14.92-.3,1.42-.46a34.41,34.41,0,0,1,4.52-1.22c1.19,0,3.5.25,4.62.18s7.62-2,8.84-1.91,3.53-1.54,6.13-1.54a24.9,24.9,0,0,1,5.94,1c3.46.09,6.69-.85,10-1.26,18.8-2.41,37.5-5.15,56.23-7.79,4.35-.6,8.74-1.22,13.06-2,4.75-.8,9,.53,13.46,1.24,3.56.57,7.06,1.43,10.65,1.88,2.24.3,4.49.78,6.46-1.29,1.35-1.38,3.69-3.68,7-2.78s6.33,2.71,6.53,5.63c.1,2,2.31,2,4.09,2.37a3.48,3.48,0,0,0,4-1.4c2.31-3.31,5.77-4.14,10.59-2.8,1.15.32,1.32.11,2-.51,2.47-2.18,3.89-4.87,7.19-6.73,2.21-1.22,4.09-1.43,5.94-.25,2.28,1.45,4.82,2.9,4.95,5.36.1,1.88,1.52,1.56,3.13.92,4.75-1.93,10.49.28,10.59,4.14.1,3,2.31,5.59,3.13,8.44.3,1.06,1.81.78,2.08-.16.66-2.39,4-3,5.84-4.69a4.07,4.07,0,0,1,4.32-.16c2.44,1.52,5.28,2.87,5.08,5.72-.13,2.21,1.15,3.79,5,4.32,8.61,1.17,17.12,2.74,25.66,4.21,1.85.32,2.94.25,4.16-1.1a9.16,9.16,0,0,1,7.72-3.45c2.57.18,6,3.59,6.1,5.75,0,1.15,1,1.77,2.11,2.07a2.71,2.71,0,0,0,3.27-1.49c.69-1.75,2.51-2.64,4.32-3.7a7.07,7.07,0,0,1,7.88.32c2.31,1.65,3.33,3.65,3.2,5.79-.16,3.06,3.33,2.64,5.67,3.13s3.36-.69,4-2.23c.86-2.09,3.53-3.4,6.1-4s3.2-1.91,2.87-3c-.53-2,.33-3.59.92-5.36.66-2,1.55-3.93,1.06-6-.69-2.64,2.34-4.85,1.62-7.47a3,3,0,0,1,2.37,0c1.95,4.71,3.83,9.42,4,14.41s1,10,1.62,15a4.08,4.08,0,0,0,1,1.79,2.13,2.13,0,0,0,1.78,1c.89-.07,1-.74,1.22-1.29a5.1,5.1,0,0,0,.46-2.11c0-6.3,1.62-12.48,2.74-18.71a12.77,12.77,0,0,1,1.42-2.85c.23-.55-.26-1.47,1.12-1.45a1.89,1.89,0,0,1,1.85,1.29c.79,4.48,3.33,8.71,3.13,13.38-.16,4.25.66,8.55,1.15,12.83.1.87,4.78,2.69,6,2.46.79-.16,1-.57,1-1.06-.26-7.49,1.58-14.82,4-22.09.2-.51-.1-1.24,1-1.29.89,0,1.19.6,1.62,1.08a9.57,9.57,0,0,1,2.11,5.52c.46,3.17,2.18,6.21,1.75,9.49-.26,1.86,1.95,1.84,3.86,1.84,8.71,0,17.41.07,26.12,0,3,0,4.35.51,4.06,2.76-.26,1.91,0,3.86-.07,5.79-.1,1.7.73,2.44,3.36,2.57,12.66.62,25.2,2,37.8,3.15,11.15,1.06,22.33,1.91,33.51,2.9,12.07,1,24.11,2.16,36.21,3.19,12.33,1.06,24.67,2.14,37,3.06,3.36.25,4.06-2.25,5.54-3.65a23.64,23.64,0,0,1,3.59-3.13c3.5-2.18,5.94-2.16,8.64.57,2,2,3.59,2.3,6.3.69s5.64-1,7,.9c2.28,3.22,5.71,3.84,10.26,3.33,3.2-.34,6.5-.51,9.76-.74s5.34-1.31,5.87-3.68a3.88,3.88,0,0,1,.86-1.52c2.57-2.87,4.95-3,6.86.16s4.55,3.77,9.53,3.19c10.85-1.24,21.9-1.47,32.82-2.46,16.39-1.49,32.88-1.93,49.37-2.78,11.11-.57,22.2-1.15,33.31-1.65,4.06-.18,10.82-.83,12.14-.83h0c7.16-.94,19.52-2.64,25.39-4h.07q12.07-3.86,24.17-7.68l.23-.07c.16-.07.46-.16.86-.32.82-.28,2.14-.74,3.73-1.31s3.76-1.33,6-2.18c6-2.25,8.38-2,8.38-2,3.4-.16,6.6.87,9.83,1.38,8.34,1.36,16.59,3,25.06,3.84l17.41,3.31c9.56,1.59,19.16,3.06,28.66,4.83,3,.57,4.58,0,5.94-1.75a18,18,0,0,1,6.17-5.54,5,5,0,0,1,4.91-.3c2.18,1.13,4.42,2.51,4.88,4.44s1.45,1.75,3.3.87c4.81-2.28,10.09-.6,11,3.56.3,1.43.3,2.76,2.74,3.22,2.28.41,3.53-.53,4.95-1.61,4.55-3.49,6.86-3.33,11,.55,3.4,3.13,12.8,3.75,17,1.15l2.67-1.63c2.7-1.7,5.74-1.63,7.55.6,2.8,3.49,6.79,4.34,12.27,4.44,7.32.11,14.58,1,21.87,1.63q14.79,1.31,29.58,2.67c13.88,1.24,27.77,2.55,41.65,3.75,11.84,1,23.68,1.86,35.52,2.87,9,.78,17.87,1.75,26.88,2.32,3.5.23,4-.87,3.92-2.44a20.7,20.7,0,0,1,2.44-10.25c.26-.55-.3-1.49,1-1.49a2,2,0,0,1,2,1.47,98,98,0,0,1,3.17,11.56c.36,2,1.19,2.85,4.06,2.71a12,12,0,0,1,2.67.32c2.64.44,4,.32,3.13-2.11-.66-2,.17-4.23.73-6.23,1.35-4.9.36-10.09,3.69-14.76.3-.44-.07-1.26,1.05-1.26a1.72,1.72,0,0,1,1.72,1.33c1,3.1,2.54,6.23,2.7,9.38.2,3.56,1.06,7.1,1,10.66s5.57,6.07,10.55,4.78c1.58-.41,1.06-1.29,1.32-2,1.78-5.15.79-10.62,3.79-15.61.33-.55,0-1.43,1.29-1.47s1.35.76,1.85,1.29c1.45,1.47.66,3.22,1.15,4.83,1,3.26,3,6.37,1.78,9.91-.4,1.22.4,2.92,3.59,2.64,2.74-.23,2.9-1.33,3-2.85A57.91,57.91,0,0,1,1512.7,238c.36-1,1.19-1.24,2.21-.41.56.48,1.25,1.08,1.35,1.65.73,4.16,2.9,8.16,2.7,12.43s1.42,4.73,6.66,2.76a6.76,6.76,0,0,1,1.38-.39c.66-.11,2.54-.07,5.31-.14,9.93-.53,19.66-1.93,29.45-2.94,12.89-1.31,25.76-2.83,38.65-4.28C1603.75,246.37,1610,245.31,1610.78,245.65Z" style="fill:#8f9883"/><path d="M1045.77,241.08s0,0,0,0a2.82,2.82,0,0,0-.5,0Z" style="fill:#8f9883"/><path d="M293.69,226.9l-.26,0,.1,0Z" style="fill:#8f9883"/><path d="M291.31,260.64h-3c.86-.44,1.72-.9,2.57-1.36A6.68,6.68,0,0,1,291.31,260.64Z" style="fill:#828a75"/><path d="M722.36,330.77c-8.9-5-18.8-8.76-24-15.79-3.23-4.39-3.26-9-5.28-13.4-.07,0-.07-.07-.07-.12a16.83,16.83,0,0,0-5.94-6.71s0,0,0,0v-.07a1.4,1.4,0,0,0-.23-.16c-.16-.11-.36-.25-.56-.37s-.3-.16-.46-.25l.1,0c-1.65-.9-3.76-1.1-5.77-1.49l-.13,0-2.47-.64,0,0-.07,0a87,87,0,0,1-13.69-7.22,51.2,51.2,0,0,0-15.5-5.7c-10.59-2.37-21.37-4.34-32-6.83-7.65-1.79-15.27-3.56-23.12-4.92-1.88-.34-2.08-1.38-1.85-2.39a7.36,7.36,0,0,0,0-4.07c-.82-2.62-3.56-4.41-8.41-5.7-5.21-1.38-10-3-15.8-2.71-4.85.21-9.76,0-14.61.18a7.41,7.41,0,0,1-4.16-1.22,124.81,124.81,0,0,0-24.11-8.5C516,240.57,508,238,499.81,235.84c-24.87-6.44-48.35-14.92-72.62-22.25a14.23,14.23,0,0,1-4.91-2.64c-4.45-3.61-9-7.1-13.62-10.64-1.68-1.29-3.13-2.32-6.33-1.61-9.79,2.21-19.62,4.32-29.55,6.3-10.95,2.16-21.7,4.8-32.49,7.33-1.81.44-3.92.18-5.38,1.29a4.21,4.21,0,0,1,0-.64,1.4,1.4,0,0,0-.43.74,1.69,1.69,0,0,0-.3,0l-1.55.34c-.16,0-.33.07-.53.11l-2.47.51-1.22.28-3.5.74-2.08.44-3.07.64-3.56.76-5.47,1.17-3.56.76c-.76.14-1.48.3-2.18.46l-6.73,1.43-1.09.23c-.3.07-.59.14-.86.18l-1.62.34-1.39.3-1.48.34c-7,1.45-13.92,3-21,4.25-2.94.53-5.61,2-8.9,1.49v.25c0,.3,0,.6,0,.9a3,3,0,0,0,0,.53,7.08,7.08,0,0,0,3.36.28c9.23-1,18.44-2,27.54-3.52l.23,0a1.61,1.61,0,0,0,.3,0l.1,0,3.26-.41s0,.12,0,.16c6.3-.57,18.57-1.72,23-2.76.89-.21,2-.41,3.36-.62l.2,0,14.15-1.72.63-.09v0l4.35-.51.4,0,.26,0a.9.9,0,0,0,.26,0l.2,0,5.08-.62c1-.12,1.95-.25,2.9-.39,1.81-.23,3.66-.51,5.47-.78,6.63-1,13.32-1.7,20-2.53a35.55,35.55,0,0,1,7.65-.34l-.59.25-.66.28c-1.81.76-5.54,2.34-10.62,4.53a.3.3,0,0,0-.13,0l-.26.11c-8.71,3.4-17.48,6.73-26.25,10.09a18,18,0,0,1-5,1.56c0-.11,0-.25.07-.37a5.75,5.75,0,0,0-.56.23,9.09,9.09,0,0,0-1.52,3.22c-15.4,7-32.68,15.22-48.25,23.26a6.68,6.68,0,0,1,.43,1.36h-3c-10.69,5.61-20.45,11.15-28.1,16.16q-2.08,1.38-4,2.69c-6.1,4.32-16.69,2.51-24.87,4.55s-19.66,7.72-21.5,13.74c-1.78,5.68-6.56,21.93-11.68,26C179.48,338.72,165,350.65,165,350.65H476a152.85,152.85,0,0,0-1.78-33.9,96.23,96.23,0,0,0-8-26.13.27.27,0,0,1-.07-.14c-.4-1.24-.76-2.51-1.06-3.77a.11.11,0,0,1,0-.09l.49.48c1.29,1.06,3,2.53,4.91,4.18a.52.52,0,0,1,.2.16c3.3,2.85,7.09,6.27,10.19,9.42,0,0,0,0,.07,0,.73.74,1.42,1.47,2,2.18.43.46.82.92,1.22,1.36.53.64,1,1.29,1.42,1.86,6.83,9.86,18,44.27,18,44.27H733S731.23,335.78,722.36,330.77Zm-261.7-14.43,0-.18s0,0,.07,0Z" style="fill:#828a76"/><path d="M296.79,226.49s0,.12,0,.16c-1.12.09-2,.16-2.7.23a1,1,0,0,0-.26,0h-.26Z" style="fill:#828a76"/><path d="M686.25,294.2c-.13-.09-.3-.16-.46-.25l.1,0Z" style="fill:#828a76"/><path d="M687.07,294.75s0,0,0,0v-.07S687.07,294.73,687.07,294.75Z" style="fill:#828a76"/><path d="M687.07,294.75s0,0,0,0v-.07S687.07,294.73,687.07,294.75Z" style="fill:#8f9883"/><path d="M342.4,220.88l-4.35.53v0Z" style="fill:#8f9883"/><path d="M1143.75,260c0,.14-.1.28-.13.41v0a2.18,2.18,0,0,1-.82.21h.76a96.24,96.24,0,0,1-3.36,10.16c-1.12,2.53,1.65,5-.46,7.45a4,4,0,0,1-1.68.48c-5.84.74-9.93-2.16-14.81-3.49-1.42-.39-1.19-1.26-1.29-2.09,1.29,2.07,4.72,2.3,7.16,3.36l-7.55-4.34c-.4-.25-.66-.51-.66-.85a61.76,61.76,0,0,1-10.85,5.77c-3,1.31-3.17,4-1.09,7.68-4.12-.09-4.95,3.54-6.86,3.08s-1.38-6-5.64-6.62a10.47,10.47,0,0,1-6.56-4.14l.1,0s0,0,0-.07l-.13,0c.3-1.29-1.19-2.39-.46-3.75,1.32-2.57,1.19-2.62-.36-5.29-2.77,3.65-4.81,7.45-7.75,11-1.72,2-4.65,4.07-4.06,6.87l.46.07-.07.09v0l0,0-.1.09a1.25,1.25,0,0,1-.23.32,5.14,5.14,0,0,1-.46.64l-.4.53-.43.6-.1.14a5.28,5.28,0,0,0-.4.53s-.07.09-.1.14c-4.88,6.67-15.6,22.43-12.43,27.44,5.74,3.47,8.9,8.23,11.58,12.69s5.11,8.85,9.4,11.06c.26,3.91,14.41,10,15.3,10.32l0,0H813.52c16.75-14.8.13-36.68-9.79-47.23-3.59-3.77-6.3-6.09-6.3-6.09a9.48,9.48,0,0,0-5.64-3.17C775,290,758.51,285.51,742.05,280.8c-1.91-.55-3.1-1.65-4.65-2.51-5.67-3.1-11.08-6.46-17.18-9.08a145.3,145.3,0,0,0-18.34-6.55,51.14,51.14,0,0,1-5.71-2c-1.65-.67-3.27-1.36-4.91-2,.79-1.29,2.18-.83,3.17-.83,14.64,0,29.29,0,43.93,0,4.52,0,8.31,1.63,12.33,2.67l.79.21c16.59,4.23,33.08,8.57,49.63,12.87.92.25,1.88.41,3.33.71a5.43,5.43,0,0,1,.59.11,4.85,4.85,0,0,0-.4-.32c-3-2.57-6.56-4-9.47-5.86-4-2.57-8.08-5.06-12.24-7.52-1.95-1.15-3.89-2.3-5.84-3.47-.56-.34-1.45-.64-.89-1.26.4-.44,1.15-.21,1.78-.07,8.41,1.61,16.69,3.59,25.16,4.8.69.11,1.42.21,2.11.3,11.31,1.45,19.82,5.88,28.1,10.87a24.58,24.58,0,0,0,10.88,3.84c10.19,1.06,20.18,3.1,30.34,4.39,7.68.94,15.37,1.93,23.15,3-3.46-3.36-8.67-5.19-12.86-7.81-.46-.3-1.19-.44-1.65-.76-.76-.55-2.41-1-1.75-1.88s2.11-.39,3.2-.23c5.84.87,11.81.51,17.68.71,11,.41,22,1.08,33,1.43,9.63.28,19.29,1.06,28.92,1.86,5.57.48,11.21.71,16.79,1.31s9.89-1.59,14.58-2.87c12.3-3.38,24.5-7,36.71-10.5,1.48-.44,2.93-1,5.11-1.75.26-.09.56-.18.86-.3l-.92-.07c-4.25-.3-7.42.48-10.62.83-9.43,1-18.86,2.07-28.3,3-1.22.11-3,.48-3.73-.32-.86-1,1-1.7,1.55-2.57a11.42,11.42,0,0,1,2.18-2.48c4.16-3.82,10.69-5.36,16.85-7.31,8.08-2.57,16.06-5.24,24.11-7.79.73-.25,1.48-.48,2.21-.71,2.34-.76,1.12-2.83,3.17-3.59l.43-.07a2.82,2.82,0,0,1,.5,0s0,0,0,0l20.68-3.65A11.79,11.79,0,0,1,1068,237c3.53-.71,7-1.49,10.52-2.3,4.68-1,9.37-2.11,14.12-3.06l.69-.14c.46-.09,1-.16,1.45-.28.26,0,.5-.11.76-.18a3.28,3.28,0,0,0,.36-.09c.26-.07.53-.16.79-.25a5.72,5.72,0,0,0,.89-.39,2.57,2.57,0,0,0,.56-.34,2.24,2.24,0,0,0,.49-.39,2.36,2.36,0,0,0,.69-1.54v0a4.08,4.08,0,0,0-.36-1.61c-.36-.85,1.06-1.38,2.14-1.75l.23-.09c.53-.21,1.81-.69,2.18-.48a14.18,14.18,0,0,1-.89,1.33c-.59.8-1.09,1.7-.33,2.41,1.25,1.17,3.53,1.86,6.37,2.21a34.63,34.63,0,0,1,6.2,1.45c.79.28,1.55.55,2.24.87a7.89,7.89,0,0,1,2.47,1.47l0,0s0,0,0,0a.44.44,0,0,1,.23.14c.86.94,1.78,1.88,2.74,2.8.36.37.76.74,1.12,1.1,2.9,2.85,5.94,5.65,8.77,8.53.46.46.89.92,1.29,1.36s1.06,1.1,1.55,1.65c.66.76,1.32,1.52,1.95,2.3s1,1.29,1.48,2a6.74,6.74,0,0,1,.53.74c.53.76,1.06,1.56,1.52,2.37S1140.91,259.88,1143.75,260Z" style="fill:#828a76"/><path d="M1090,277.05s0,0,0,.07l-.1,0Z" style="fill:#828a76"/><path d="M1143.62,260.43c0,.07,0,.14-.07.21h-.76A2.18,2.18,0,0,0,1143.62,260.43Z" style="fill:#838a75"/><path d="M686.25,294.2c-.13-.09-.3-.16-.46-.25l.1,0Z" style="fill:#828a76"/><path d="M291.31,260.64h-3c.86-.44,1.72-.9,2.57-1.36A6.68,6.68,0,0,1,291.31,260.64Z" style="fill:#828a76"/><path d="M687.07,294.75s0,0,0,0v-.07S687.07,294.73,687.07,294.75Z" style="fill:#828a76"/><path d="M1099.29,228.07a2.36,2.36,0,0,1-.69,1.54A5.14,5.14,0,0,0,1099.29,228.07Z" style="fill:#8f9883"/><path d="M296.79,226.49s0,.12,0,.16c-1.12.09-2,.16-2.7.23a1,1,0,0,0-.26,0h-.1l-.26,0,.1,0Z" style="fill:#828a76"/><path d="M342.4,220.88l-4.35.53v0Z" style="fill:#828a76"/><path d="M1045.77,241.08s0,0,0,0a2.82,2.82,0,0,0-.5,0Z" style="fill:#828a76"/><path d="M1090,277.05s0,0,0,.07l-.1,0Z" style="fill:#8f9883"/></svg>