<svg id="4789e270-225f-4db5-8b54-9d8a6079bc9c" data-name="Montañas Próximas" xmlns="http://www.w3.org/2000/svg" viewBox="0 0 1612.92 597.43"><title>proximasArtboard 1</title><path d="M1610.78,209.61v171.7L0,377V187.32H25.33c1.12.67,2.47.53,3.76.55,2.11,0,4.22-.07,6.3,0,26,.8,51.91,1.1,77.9,1.13,2.9,0,56.13,1.49,65.76,1.65,11.61.23,23.22.71,34.86,1.1.46,0,35.35.48,37.83.53,9.89,0,19.69-.41,29.52-1.38,5.67-.55,11.41-1.36,17.28-1.47,6-.14,12-1,18.07-1.56,1.36-.13,7.72-1,9-1,3.5.11,6.53-1.4,10-1.22,8.51,0,16.85-1,25.16-2.07,2.14-.25,4.49.37,6.46-.69h1.58a3.18,3.18,0,0,1,1.48-.34c6,.21,11.87-.94,17.71-1.54,6.13-.62,12.53-.23,18.47-1.7,8.57-.53,17-2,25.49-2.71,4.82-.44,9.56-1.75,14.41-2.53,5.57.37,10.65-1.08,16-1.82,8.71-1.22,17.61-2.94,26.29.55,2,.8,4.55.87,6.83,1.26,7,2.21,14.68,2.55,22,3.86a4.74,4.74,0,0,1,1.78.55c4.06,1.17,8.44,1.45,12.66,2.21a7.31,7.31,0,0,1,4.39.74c2.41,1.72,5.34,1.45,8.28,1.47,5.21.67,9.73,2.83,15.34,2.9,3.92.07,7.62,1.63,11.51,2.39,6.5,1.26,13,2.37,19.66,3.1a2.58,2.58,0,0,1,1,.44h.79c5.28.62,9.86,2.87,15.43,3,3.43.07,6.79-.39,10.22-.23,1.42.07,20-2,27.37-2.76,7.16-.3,14.35-.9,21.27-1.86,9.2-1.26,18.63-.11,27.6-2a6,6,0,0,0,1.78-.55c8.51-.11,16.85-1.36,25.3-1.93.26,0,.49-.16.76-.16,12.5-.09,24.77-2.28,37.27-2.32,7.29-.87,14.68-.28,22-.83,25.16-1.88,50.39-.32,75.59-.83a7,7,0,0,1,3.76.55c16.89.16,33.74,1.59,50.66,1.1a5.34,5.34,0,0,0,2.57.55c14.58.51,29.19.69,43.67,1.36,13.13.6,26.29.09,39.28,1.06,8.54.62,17,.71,25.49.9a5.79,5.79,0,0,1,3,.55h12.66a2.77,2.77,0,0,0,1.39.46c6.2-.3,12.27.83,18.4.9,18,.23,36,.11,54,.69,7.82.23,15.47-.46,23.15-.85,3.46-.18,7.29-.12,10.69-1.2,7.78-1.2,15.67-1.91,23.51-2.76,2.8-.32,5.41-1.13,8.15-1.65H1181c1.95-.87,4.09-.48,6.17-.53a21.83,21.83,0,0,0,3.53-.3c8.21-1.75,16.82-2.16,25.13-3.59,3.63-.51,7-1.93,10.78-1.65,2.47.16,4.49-.87,6.76-1.22a67.24,67.24,0,0,0,7.78-1.54h4.75c1.09-.67,2.47-.48,3.76-.55,3.63-.21,7.39,0,10.49-1.82a1.81,1.81,0,0,1,.73-.23c13.82-.69,27-5.29,41.26-3.42,5,.67,10.09.76,15,1.61,4.39,2,9.43,1.08,14.15,1.65,5.14.62,10.42.74,15.43,1.82,2.77.6,5.8-.18,8.41.94a4.21,4.21,0,0,0,2.18.53c12.07.3,23.91,2,35.72,3.47,10.12,1.29,20.41,1.79,30.51,3.22,3.86.53,7.62,1.38,11.54,1.61h2.37c9,1.47,18.14,2.32,27.24,3.42,9.63,1.2,19.23,2.21,29,2.8,4.52.28,8.84,1.93,13.42,2.6h3.17c3.36,1.56,7.35,2,11.15,2.48,6.23.76,12.14,2.34,18.24,3.1s12.07,2.14,18.11,3.24h4.75c2,1.61,4.95,1.49,7.59,1.88,4.09.57,8,1.88,12.2,1.88,2.64,0,4.68,1,7.06,1.33C1596,206.63,1604.05,208.67,1610.78,209.61Z" style="fill:#b4ac99"/></svg>