<svg id="876cfed8-5fd4-4c83-9218-86183d20355e" data-name="Montañas de Fondo" xmlns="http://www.w3.org/2000/svg" viewBox="0 0 1612.92 597.43"><title>fondoArtboard 1</title><path d="M139.67,132.64c-.2.69-1.22.53-2,.55a23.83,23.83,0,0,1-7.35-.67A54.06,54.06,0,0,0,119.19,131c-4-.25-6-2.74-9.14-4-2-.76-3.36-2.23-5.67-2.85a3.08,3.08,0,0,1-1.91-1.33c-1.19-4.3-6.37-5.56-11-7.24-2-.71-4.06-1.36-6.13-2h15.9c2.41,1.2,4.82,2.39,7.22,3.56,4,1.93,8.11,3.79,10.49,7.1,1.62,2.23,5.14,1.38,7.82-1.79,4.78,2.62,7.52,6.39,12,9C139.21,131.77,139.74,132.29,139.67,132.64Z" style="fill:#e8b995"/><path d="M363.9,114.6c-2.7,1.2-5.21-.46-7.85-.32-.17,0-.53-.34-.66-.62h7.45C363.18,114,363.54,114.3,363.9,114.6Z" style="fill:#e8b995"/><path d="M592.35,155.56c-5.11.09-10.22-.37-15.34.23-7.55.18-15.1.6-22.66.48a92.92,92.92,0,0,1-17.71-1.54c-3-.16-5.84-.9-8.81-1.17a21.7,21.7,0,0,1-7.22-2.07c-10.32-4.9-20.81-9.63-31.46-14.11q-11.77-5-23.88-9.61c-6.23-2.37-11.35-5.93-17.12-8.78-.73-.37-1.22-1-2.31-1-.82.78-.07,1.45.56,2,4.95,4,8.94,8.6,14.35,12.41,3.66,2.6,6.76,5.59,10.06,8.44,2,1.75,1.88,3.63,1.06,5.49s-3.17.71-4.88.71c-8.48-.71-16.65-2.39-24.9-3.86-7.35-1.31-13.88-4.23-21.37-5.42a147.57,147.57,0,0,0-16.26-1.79c-1.48-.64-3.3.14-4.78-.51h-1.55l-.13,0c-7.35-1.56-8.74-5.31-7.82-10.07.36-2-1.12-4.64,4.06-4.5.23,0,.49-.55.73-.87,0-.07-.07-.14,0-.18-.23-.69.56-1,1.32-1.33.4-.09.82-.16,1.22-.23-1.62-1-2.31-2.69-2.94-4.55H499.22c8.9,2.92,18.4,4.78,27.54,7.29,7.09,2,14.08,4,21.14,6.07,6.17,1.77,12.53,3.17,18.44,5.42a40.6,40.6,0,0,1,9.53,4.87,4.9,4.9,0,0,0,2,1.24c4.62.87,7,3.79,10.65,5.49s5.8,4.5,7.72,7.19S596.81,155.46,592.35,155.56Z" style="fill:#e8b995"/><path d="M704.16,166c-6.5,1-10.62-1.31-14.74-2.83-7.82-2.83-15.83-5.42-23.75-8.11a74.94,74.94,0,0,1-10.59-5.08c-4.42-2.34-7.85-5.19-11.51-8-2.77-2.14-7-2.34-11-2.11-6.86.39-13.72,0-20.58,0a5.39,5.39,0,0,1-2.54-.62c-3.56-2.69-8.31-3.75-13-5.08a34,34,0,0,1-6.83-3.13c-4-2.14-9.07-2.94-12.63-5.49a4.23,4.23,0,0,0-.92-.57c-2.18-.23-4.29-.51-5.28-2.09a.45.45,0,0,1-.13-.09,2,2,0,0,0-1.58-.55c-.46-.6-2-.74-2.74-1.1l0,0c-2.61-1-4.58-2.71-7.42-3.4-.56-.14-1-.69-.56-1.13a1.64,1.64,0,0,1,1.75-.07,39.73,39.73,0,0,0,8.21,2.28c1.15.18,1.88.11,2.11-.62-.2-.16-.4-.32-.63-.48-2.67-.76-4.42-2.07-5.28-4h15.83c3.5,1.36,7.06,2.74,11.25,3,3.4.28,6,2,9,3.06,5.67,2,11.61,3.61,17.25,5.68,11.61,4.28,23.58,8.09,34,13.88,2.18,1.22,4.35,2.83,7.42,3.4,2.37.44,2,2.39,3.07,3.59,1.85,2.14,3.69,3.47,7.52,2.6a9.85,9.85,0,0,1,8.08,1.59c5.44,3.4,11.35,6.44,16.89,9.77C697.73,162,699.61,164.47,704.16,166Z" style="fill:#e8b995"/><path d="M986.07,140.39a146.23,146.23,0,0,1-16.82-1.15c-7.59-1-15.17-2.16-22.92-2.11-6.89,0-11.58-3-17-5.06-7.19-2.74-14.25-5.59-20.05-9.75-1.71-1.2-2.9-2.69-5-3.7-5.34-2.48-11.48-3.45-17.31-5h27.6c2.7.85,5.38,1.7,8,2.64,10.32,3.72,20.84,7.19,31.36,10.66,2,.64,4.95,2.48,5.84-1.06.16-.74,1.58-.3,2.28.14C969.71,130.87,978.22,134.94,986.07,140.39Z" style="fill:#e8b995"/><path d="M1507.72,146.68c-.26,1.08-1.25.6-2,.18-3-1.72-6.2-3.36-9.1-5.17-3.36-2.14-7.52-3-11.64-4-5.9-1.4-11,.18-14,3.38-2,2.09-4.78,2.21-7.19,2.94-1.65.51-3.79.87-5.34,1.49-2.21.87-3.56.62-5.64-.09-6.23-2.09-13-3.59-19-5.91-10.95-4.25-22.43-7.7-33.8-11.24-7.12-2.23-14.08-5.06-21.9-6.14a4.41,4.41,0,0,1-3-1.68c-.46-.6-1-1.2-1.45-1.77s-1-1.17-1.52-1.75-1.25-1.36-1.91-2c-.43-.46-.89-.9-1.35-1.31h35.45c5.28,2.14,10.62,4.23,16,6.27,7.92,3,16.59,4.62,24.83,7,5.74,1.65,11.71.37,17.55.07,7.12-.39,14.21-1.24,21.3.53,2,.48,4.45.21,6.66.09a4.78,4.78,0,0,1,4.25,1.61,149.88,149.88,0,0,0,12.53,14.18C1508.34,144.38,1508,145.63,1507.72,146.68Z" style="fill:#e8b995"/><path d="M138.75,131.51c-4.52-2.6-7.26-6.37-12-9-2.67,3.17-6.2,4-7.82,1.79-2.37-3.31-6.46-5.17-10.49-7.1-2.41-1.17-4.82-2.37-7.22-3.56A115.72,115.72,0,0,0,88.09,108C72.89,102.69,57.85,97.11,42,92.76,30.67,89.66,21.6,84.33,12.9,78.6a5.9,5.9,0,0,0-4-.64c-1.22.18-.86,1.2-1,1.91-.23,1.36-.59,2.71-.76,4.07-.43,3.47,1.32,4.92,6.33,5.1a8.92,8.92,0,0,1,4.58,1.24A116.58,116.58,0,0,1,28,97.06c3.5,2.44,8.18,3.77,12.66,5.26,3.59,1.17,6.83,2.46,10.95,2.23,2.31-.11,4.88-.48,7,.55,4.29,2.09,9.4,3,14,4.71,4.09,1.49,8.44,2.6,12.73,3.84,2.08.6,4.12,1.24,6.13,2,4.68,1.68,9.86,2.94,11,7.24a3.08,3.08,0,0,0,1.91,1.33c2.31.62,3.69,2.09,5.67,2.85,3.17,1.22,5.18,3.7,9.14,4a54.06,54.06,0,0,1,11.15,1.54,23.83,23.83,0,0,0,7.35.67c.76,0,1.78.14,2-.55C139.74,132.29,139.21,131.77,138.75,131.51Zm97.52-56.2c-.2.09-.4.18-.59.3a16.17,16.17,0,0,1-4.95,1.61A160.24,160.24,0,0,0,211.2,81c-1.39.34-2.77.48-4.16.69-4.06.62-8.44.6-12.07,2a15.14,15.14,0,0,1-5.8,1.24c-8.81,0-17.38-1.36-26-2-9.89-.71-19.85-.28-29.81-1.15-8.15-.71-16.56-.18-24.87-.21a27.11,27.11,0,0,1-5.11-.32,109.83,109.83,0,0,0-18.57-1.61c-10.09-.16-20.08-1.08-30.18-1.33a10.12,10.12,0,0,1-3.3-.78h0c.16.6.53,1,1.52,1,4.62.16,9.3.76,13.82.92,12.7.44,25.26,1.29,37.93,2.16,15.93,1.13,32.16,0,48.18,1.36,4.72.41,9.5.46,14.25.8,8.08.57,16.16,2.18,24.44,1.43.92-.09,1.95,0,2.57-.53,3.46-2.78,8.57-1.88,12.86-2.67,5.18-.94,10.06-2.48,15.43-3,2.8-.3,5.28-1.7,8.48-1.56a7.37,7.37,0,0,0,5.74-2.16ZM301,62.45A43.25,43.25,0,0,1,293.89,64c-.46,0-.89.07-1.35.09-.2.07-.43.14-.63.23a28,28,0,0,0,9.83-2C301.47,62.33,301.24,62.4,301,62.45Zm61.84,51.21a21.26,21.26,0,0,1-3-3.56,1.65,1.65,0,0,0-1.12-1,4.29,4.29,0,0,0-3.46.41c-.73,1.31.33,2.62.07,3.93a.26.26,0,0,0,.07.21c.13.28.49.62.66.62,2.64-.14,5.14,1.52,7.85.32C363.54,114.3,363.18,114,362.85,113.65Zm21-33.14c-3.26-.64-18.6-10.18-20.41-10.41L344.25,58.56c-2-.55-4.06-1-5.54-1.4a7.59,7.59,0,0,1-2.44-.62A97,97,0,0,1,348.4,67.73c9.7,10.44,13,11.63,11.91,17,.69-3.54,14.84-3.54,14.84-3.54s14.15,2.11,17.31,3.45c1.75.74,6.66,1.22,15.14,3,.3-.25,4.52,1.08,4.95.92a19.28,19.28,0,0,1,2.61-.12C414.53,88.42,388.14,81.34,383.86,80.51ZM434.64,82c-2.21-.34-4.49-.69-6.79-.83L437,82.3C436.19,82.21,435.44,82.1,434.64,82Z" style="fill:#e8b995"/><path d="M1610.79,75.69a5,5,0,0,0-2,.3c-2.09.54-4.29,1-6.3,1.63-3.3,1.06-7,1.45-10.36,2.48l-28.79,7.42c-4.52.74-8.54,2.44-13.06,3.19C1532.88,95.24,1515,99,1497.76,104c-.43.21-.86.41-1.32.6-2.77,1.63-6.17,2.11-9.6,2.55l-.5.09a8.46,8.46,0,0,0-1,.28s-.1,0-.13,0a6.22,6.22,0,0,1-3.6.85l-.26,0a4.27,4.27,0,0,0-.79.23c-.82.92-2.14.85-3.46.8h0a3.6,3.6,0,0,0-.49,0,7,7,0,0,0-1,.18h0a4.72,4.72,0,0,1-4.19-.16,1.39,1.39,0,0,0-.26,0c-2.67,0-5.41.23-7.75-1.13l.49.07c-.23-.07-.43-.16-.63-.23-.82-.25-1.68-.51-2.57-.69-11.94-2.23-24.08-3.91-36.11-5.79-2.67-.44-5.31-1-8-1.31-11-1.22-22-2.85-33.08-3.68a29.21,29.21,0,0,1-11.51-3.33c-4.68-2.37-9-5.08-14.08-7.06a9.06,9.06,0,0,1-1.45-.3l.17.25c-1.68-.28-3.07-.88-3.7-2.1a4.89,4.89,0,0,0-1-.29c-.13,0-.55,0-.69-.06s-.57,0-.83,0a2,2,0,0,0-1.17.47v0c2.87,2,5.81,4.6,9.11,6.14s4,3.91,6.33,5.7c4.62,3.52,10.75,5.33,16.16,7.93,6,2.87,12.66,5.08,19,7.65l4.55,1.82c5.28,2.14,10.62,4.23,16,6.27,7.92,3,16.59,4.62,24.83,7,5.74,1.65,11.71.37,17.55.07,7.12-.39,14.21-1.24,21.3.53,2,.48,4.45.21,6.66.09a4.78,4.78,0,0,1,4.25,1.61,149.88,149.88,0,0,0,12.53,14.18c1,.94.59,2.18.33,3.24s-1.25.6-2,.18c-3-1.72-6.2-3.36-9.1-5.17-3.36-2.14-7.52-3-11.64-4-5.9-1.4-11,.18-14,3.38-2,2.09-4.78,2.21-7.19,2.94-1.65.51-3.79.87-5.34,1.49-2.21.87-3.56.62-5.64-.09-6.23-2.09-13-3.59-19-5.91-10.95-4.25-22.43-7.7-33.8-11.24-7.12-2.23-14.08-5.06-21.9-6.14a4.41,4.41,0,0,1-3-1.68c-.46-.6-1-1.2-1.45-1.77s-1-1.17-1.52-1.75-1.25-1.36-1.91-2c-.43-.46-.89-.9-1.35-1.31-.69-.64-1.39-1.31-2.11-1.91a.76.76,0,0,0-.23-.18c-.53-.46-1.09-.92-1.68-1.36-.36-.3-.76-.62-1.19-.92-.63-.46-1.29-.92-1.95-1.36s-1.25-.85-1.91-1.24-1.32-.8-2-1.2c-5.47-3.08-10.45-6.62-16.52-9.19s-13.16-3-20.15-3.4c-4.82-.25-9.63-.71-14.45-1.1-1.58-.11-2.47-.76-2-1.88,2.18-5-.82-9-5.11-12.8a8.82,8.82,0,0,1-1.91-2.09c-.76-1.4-.56-2.3,2.24-2.55,6.3-.6,12.53-.09,18.8.09,2.41.07,4.45,1.59,7.09,1.06l1.42.23a.49.49,0,0,0,.13-.32c-.17,0-1.55-.32-1.72-.39a48,48,0,0,0-6.17-3.22c-1.29-.46-1.81-.85-1.75-1.77a6.65,6.65,0,0,1,.76.23,1,1,0,0,1-.3-.32,9.5,9.5,0,0,0-2.87-1.45,172.77,172.77,0,0,0-44.39-9.06c-18.11-1.15-36.18.21-54.09,2.44a6.59,6.59,0,0,1-.73.46s0,0,0,0c-.82,1.22-2.31,1.7-4.42,1.63-2.41-.07-4.85,0-7.26,0h0c-.23,0-.46.11-.69.18a1,1,0,0,1-1,.85c-7.39.39-14.25,3.13-21.9,2.28a2.27,2.27,0,0,1,.49-.21l-.3,0c-7.78.78-15.27,2.48-22.82,3.86-2.77.51-5.71.69-8.08,2-.13.14-.3.28-.43.39l0,0c-1.65,2.37-4.72,1.72-7.52,1.65-.36,0-.73,0-1.09.09a4.46,4.46,0,0,0-1.09.34l-.16.07a19.28,19.28,0,0,1-7.39,2.53c-3.63.46-7.12,1.79-10.95,1.43.3-.11.59-.23.89-.32-.23,0-.49,0-.73.09a11.9,11.9,0,0,0-6.23,1.36,3.79,3.79,0,0,1-.4.25c-.66,1.22-2.08.87-3.4.8l-.82.14a3.38,3.38,0,0,0-.82.3c-1.88,1.63-4.62,1.88-7.49,1.82l.23-.09-1.52.07c-3.43.55-6.56,1.86-10.26,1.84-32.52-.14-65,.67-97.49,1-24.08.23-48.12,1-72.16,1.26a14,14,0,0,0-3.53.37l-1,.28a18.14,18.14,0,0,1-8.9,1.88c-15.63.07-31.27.09-46.93,0-3.2,0-6.1,1-9.1,1-4.12.09-8.38.28-12.5-.53a3.59,3.59,0,0,0-.49,0l-.33,0a19.66,19.66,0,0,1-2.9.74,2.3,2.3,0,0,0-.46.46c5.31,1.63,10.26,3.63,16.09,4.6,7,1.15,13.62,3.49,20.05,5.82,2.64,1,5.44.67,8.18,1.45,7.92,2.32,15.76,4.53,23.25,7.54,3.83,1.54,7.85,2.78,11.91,4.07,2.7.85,5.38,1.7,8,2.64,10.32,3.72,20.84,7.19,31.36,10.66,2,.64,4.95,2.48,5.84-1.06.16-.74,1.58-.3,2.28.14,7.65,4.83,16.16,8.89,24,14.34a146.23,146.23,0,0,1-16.82-1.15c-7.59-1-15.17-2.16-22.92-2.11-6.89,0-11.58-3-17-5.06-7.19-2.74-14.25-5.59-20.05-9.75-1.71-1.2-2.9-2.69-5-3.7-5.34-2.48-11.48-3.45-17.31-5-.33-.07-.66-.16-1-.25-6.5-1.75-13.26-3-19.72-4.8-1.91-.53-3.86-.46-5.64-.87-8-1.88-15.93-4-23.91-5.88-3.5-.85-7.26-1.15-10.39-2.69-.66-.34-2.28-.53-2.7.39-.36.74.53,1.33,1.45,1.77a68.52,68.52,0,0,1,10,6.11c.86.6,2.14,1.08,1.35,2-1,1.1-2.14.34-3.4,0-12.24-2.94-23.19-7.86-35.26-11a225.56,225.56,0,0,1-27.08-8.57c-7.88-3.19-15-7.35-22.43-11.08a28.48,28.48,0,0,0-7.35-3c-1.06-.18-2.11-.32-3.17-.48a.5.5,0,0,1-.16,0c-3.36-.18-6.6-1-10-1.2-3.83-.3-4.81-2.55-4.68-4.78.2-3.7,1.88-7.33,1-11.1-.3-1.17,1.62-.92,2.41-1.45,1-.41-.59-.46-.89-.5a11.09,11.09,0,0,0-5.9,1.4c-3.4,2-7.92.44-11.54,2.07-1.15.53-2.67.76-3.79,1.56-2.18,1.59-4.55,2.87-7.78.94A7,7,0,0,0,694,62.1l.69-.25-.69,0a15.75,15.75,0,0,0-3.5.44C680.38,64.61,670.15,66.77,660,69c-18.9,4.28-37.89,8.39-56.79,12.69-15.53,3.52-31.1,6.94-46.63,10.48a31.69,31.69,0,0,1-10.12.87c-10.06-.92-20.05-2-30.14-2.85-14.78-1.2-29.42-3-44.16-4.48-9.83-1-19.79-1.65-29.65-2.78-1.58-.16-3.17-.34-4.75-.57l3.3.39C432.73,81.64,407.93,78,390,73a378.93,378.93,0,0,1-41.65-14.55s-8.64-2.74-14-3c-3.53-.18-17.12,3.19-28.36,5.86l-4.25,1a28,28,0,0,1-9.83,2c.2-.09.43-.16.63-.23h-1c-5.57.74-10.92,2.07-16.36,3.08C265,69,255,71.25,244.71,73a30.36,30.36,0,0,0-8.44,2.3h.23a7.37,7.37,0,0,1-5.74,2.16c-3.2-.14-5.67,1.26-8.48,1.56-5.38.55-10.26,2.09-15.43,3-4.29.78-9.4-.12-12.86,2.67-.63.53-1.65.44-2.57.53-8.28.76-16.36-.85-24.44-1.43-4.75-.34-9.53-.39-14.25-.8-16-1.4-32.25-.23-48.18-1.36C91.88,80.81,79.32,80,66.62,79.52c-4.52-.16-9.2-.76-13.82-.92-1,0-1.35-.44-1.52-1a13,13,0,0,0-1.91-.3c-13-1-26-1.31-39-2.21C7.22,74.86,3,74.4,0,75.85V243H1610.78M137.69,133.19a23.83,23.83,0,0,1-7.35-.67A54.06,54.06,0,0,0,119.19,131c-4-.25-6-2.74-9.14-4-2-.76-3.36-2.23-5.67-2.85a3.08,3.08,0,0,1-1.91-1.33c-1.19-4.3-6.37-5.56-11-7.24-2-.71-4.06-1.36-6.13-2-4.29-1.24-8.64-2.34-12.73-3.84-4.58-1.68-9.7-2.62-14-4.71-2.08-1-4.65-.67-7-.55-4.12.23-7.35-1.06-10.95-2.23C36.18,100.83,31.5,99.5,28,97.06a116.58,116.58,0,0,0-9.93-6.78A8.92,8.92,0,0,0,13.49,89c-5-.18-6.76-1.63-6.33-5.1.16-1.36.53-2.71.76-4.07.1-.71-.26-1.72,1-1.91a5.9,5.9,0,0,1,4,.64C21.6,84.33,30.67,89.66,42,92.76c15.83,4.34,30.87,9.93,46.07,15.22a115.72,115.72,0,0,1,13.09,5.68c2.41,1.2,4.82,2.39,7.22,3.56,4,1.93,8.11,3.79,10.49,7.1,1.62,2.23,5.14,1.38,7.82-1.79,4.78,2.62,7.52,6.39,12,9,.46.25,1,.78.92,1.13C139.47,133.33,138.45,133.17,137.69,133.19ZM434.64,82c.79.11,1.55.23,2.34.32l-9.14-1.15C430.16,81.29,432.43,81.64,434.64,82Zm-78.59,32.29c-.17,0-.53-.34-.66-.62a.26.26,0,0,1-.07-.21c.26-1.31-.79-2.62-.07-3.93a4.29,4.29,0,0,1,3.46-.41,1.65,1.65,0,0,1,1.12,1,21.26,21.26,0,0,0,3,3.56c.33.32.69.64,1.06.94C361.2,115.79,358.69,114.14,356.05,114.28Zm236.3,41.28c-5.11.09-10.22-.37-15.34.23-7.55.18-15.1.6-22.66.48a92.92,92.92,0,0,1-17.71-1.54c-3-.16-5.84-.9-8.81-1.17a21.7,21.7,0,0,1-7.22-2.07c-10.32-4.9-20.81-9.63-31.46-14.11q-11.77-5-23.88-9.61c-6.23-2.37-11.35-5.93-17.12-8.78-.73-.37-1.22-1-2.31-1-.82.78-.07,1.45.56,2,4.95,4,8.94,8.6,14.35,12.41,3.66,2.6,6.76,5.59,10.06,8.44,2,1.75,1.88,3.63,1.06,5.49s-3.17.71-4.88.71c-8.48-.71-16.65-2.39-24.9-3.86-7.35-1.31-13.88-4.23-21.37-5.42a147.57,147.57,0,0,0-16.26-1.79c-1.48-.64-3.3.14-4.78-.51h-1.55l-.13,0c-7.35-1.56-8.74-5.31-7.82-10.07.36-2-1.12-4.64,4.06-4.5.23,0,.49-.55.73-.87,0-.07-.07-.14,0-.18-.23-.69.56-1,1.32-1.33.4-.09.82-.16,1.22-.23-1.62-1-2.31-2.69-2.94-4.55-.89-2.67-1.62-5.68-4.62-7.24a182.13,182.13,0,0,0-18.34-8c-11.54-4.14-12-10.16-11.28-13.7,1.06-5.33-2.21-6.53-11.91-17a97,97,0,0,0-12.14-11.19,7.59,7.59,0,0,0,2.44.62c1.48.37,3.5.85,5.54,1.4L363.44,70.1c1.81.23,17.15,9.77,20.41,10.41,4.29.83,30.67,7.91,31.3,7.91a2.33,2.33,0,0,1,.4,0,11.38,11.38,0,0,1,4.16.76c5.87,2.09,11.94,3.84,17.81,5.93a12.46,12.46,0,0,1,3.2,1.61,30.13,30.13,0,0,0,13.42,4.92c3.83.55,6,2.87,8.87,4.37,3.89,2,8.51,3.38,11.58,6.14a4.19,4.19,0,0,0,3.26.74,55.09,55.09,0,0,1-5.28-10.07c-.4-.94-1.29-2,.23-2.78a4.2,4.2,0,0,1,4.29.48,31.92,31.92,0,0,0,8.51,4.37c.89.28,1.42.67,1.48,1.1v0c.1.46-.3.94-1.32,1.38-1.88.83-1.39,1.52.17,2.23,3.07,1.4,5.94,3.1,9.89,3.19a7.46,7.46,0,0,1,2.24.53c.4.14.76.25,1.15.37,8.9,2.92,18.4,4.78,27.54,7.29,7.09,2,14.08,4,21.14,6.07,6.17,1.77,12.53,3.17,18.44,5.42a40.6,40.6,0,0,1,9.53,4.87,4.9,4.9,0,0,0,2,1.24c4.62.87,7,3.79,10.65,5.49s5.8,4.5,7.72,7.19S596.81,155.46,592.35,155.56Zm97.06,7.58c-7.82-2.83-15.83-5.42-23.75-8.11a74.94,74.94,0,0,1-10.59-5.08c-4.42-2.34-7.85-5.19-11.51-8-2.77-2.14-7-2.34-11-2.11-6.86.39-13.72,0-20.58,0a5.39,5.39,0,0,1-2.54-.62c-3.56-2.69-8.31-3.75-13-5.08a34,34,0,0,1-6.83-3.13c-4-2.14-9.07-2.94-12.63-5.49a4.23,4.23,0,0,0-.92-.57c-2.18-.23-4.29-.51-5.28-2.09a.45.45,0,0,1-.13-.09,2,2,0,0,0-1.58-.55c-.46-.6-2-.74-2.74-1.1l0,0c-2.61-1-4.58-2.71-7.42-3.4-.56-.14-1-.69-.56-1.13a1.64,1.64,0,0,1,1.75-.07,39.73,39.73,0,0,0,8.21,2.28c1.15.18,1.88.11,2.11-.62-.2-.16-.4-.32-.63-.48-2.67-.76-4.42-2.07-5.28-4,0-.07-.07-.16-.1-.25s0,0-.07-.07a5.34,5.34,0,0,1-3.56-1,7.76,7.76,0,0,0-4.95-1.26c-2.9.16-4.12-.74-4.29-2.92-.16-2.37,1.48-4.6.46-7.06-.56-1.36,1.58-1.1,2.77-.69,3.3,1.2,5.15,3.54,8.28,5,4.68,2.14,8.64,5.22,13.59,6.9,1.25.41,2.47.9,3.69,1.36,3.5,1.36,7.06,2.74,11.25,3,3.4.28,6,2,9,3.06,5.67,2,11.61,3.61,17.25,5.68,11.61,4.28,23.58,8.09,34,13.88,2.18,1.22,4.35,2.83,7.42,3.4,2.37.44,2,2.39,3.07,3.59,1.85,2.14,3.69,3.47,7.52,2.6a9.85,9.85,0,0,1,8.08,1.59c5.44,3.4,11.35,6.44,16.89,9.77,2.9,1.75,4.78,4.23,9.33,5.72C697.66,167,693.54,164.66,689.42,163.14Z" style="fill:#e8b995"/><path d="M398,135.4c-7.35-1.56-8.74-5.31-7.82-10.07.36-2-1.12-4.64,4.06-4.5.23,0,.49-.55.73-.87,0-.07-.07-.14,0-.18l.1,0c.66.85.13,1.49-1,1.7-2.64.53-2.74,1.93-2.67,3.45a25.37,25.37,0,0,1,0,3.54c-.23,2.48,1.19,4.16,4.49,5.17C396.85,134,398.5,134.23,398,135.4Z" style="fill:#e8b995"/><path d="M306,61.3l-4.25,1c-.26,0-.49.12-.73.16l.66-.18.4-.12a.31.31,0,0,0,.13,0c.69-.16,1.35-.34,2-.55a6.38,6.38,0,0,1,1.62-.3A.3.3,0,0,1,306,61.3Z" style="fill:#e8b995"/><path d="M592.35,155.56c-5.11.09-10.22-.37-15.34.23-7.55.18-15.1.6-22.66.48a92.92,92.92,0,0,1-17.71-1.54c-3-.16-5.84-.9-8.81-1.17a21.7,21.7,0,0,1-7.22-2.07c-10.32-4.9-20.81-9.63-31.46-14.11q-11.77-5-23.88-9.61c-6.23-2.37-11.35-5.93-17.12-8.78-.73-.37-1.22-1-2.31-1-.82.78-.07,1.45.56,2,4.95,4,8.94,8.6,14.35,12.41,3.66,2.6,6.76,5.59,10.06,8.44,2,1.75,1.88,3.63,1.06,5.49s-3.17.71-4.88.71c-8.48-.71-16.65-2.39-24.9-3.86-7.35-1.31-13.88-4.23-21.37-5.42a147.57,147.57,0,0,0-16.26-1.79c-1.48-.64-3.3.14-4.78-.51h-1.55l-.13,0c-7.35-1.56-8.74-5.31-7.82-10.07.36-2-1.12-4.64,4.06-4.5.23,0,.49-.55.73-.87,0-.07-.07-.14,0-.18-.23-.69.56-1,1.32-1.33.4-.09.82-.16,1.22-.23-1.62-1-2.31-2.69-2.94-4.55-.89-2.67-1.62-5.68-4.62-7.24a182.13,182.13,0,0,0-18.34-8c-11.54-4.14-12-10.16-11.28-13.7,1.06-5.33-2.21-6.53-11.91-17a97,97,0,0,0-12.14-11.19,7.59,7.59,0,0,0,2.44.62c1.48.37,3.5.85,5.54,1.4L363.44,70.1c1.81.23,17.15,9.77,20.41,10.41,4.29.83,30.67,7.91,31.3,7.91a2.33,2.33,0,0,1,.4,0,11.38,11.38,0,0,1,4.16.76c5.87,2.09,11.94,3.84,17.81,5.93a12.46,12.46,0,0,1,3.2,1.61,30.13,30.13,0,0,0,13.42,4.92c3.83.55,6,2.87,8.87,4.37,3.89,2,8.51,3.38,11.58,6.14a4.19,4.19,0,0,0,3.26.74,55.09,55.09,0,0,1-5.28-10.07c-.4-.94-1.29-2,.23-2.78a4.2,4.2,0,0,1,4.29.48,31.92,31.92,0,0,0,8.51,4.37c.89.28,1.42.67,1.48,1.1v0c.1.46-.3.94-1.32,1.38-1.88.83-1.39,1.52.17,2.23,3.07,1.4,5.94,3.1,9.89,3.19a7.46,7.46,0,0,1,2.24.53c.4.14.76.25,1.15.37,8.9,2.92,18.4,4.78,27.54,7.29,7.09,2,14.08,4,21.14,6.07,6.17,1.77,12.53,3.17,18.44,5.42a40.6,40.6,0,0,1,9.53,4.87,4.9,4.9,0,0,0,2,1.24c4.62.87,7,3.79,10.65,5.49s5.8,4.5,7.72,7.19S596.81,155.46,592.35,155.56Z" style="fill:#e8c2a7"/><path d="M139.67,132.64c-.2.69-1.22.53-2,.55a23.83,23.83,0,0,1-7.35-.67A54.06,54.06,0,0,0,119.19,131c-4-.25-6-2.74-9.14-4-2-.76-3.36-2.23-5.67-2.85a3.08,3.08,0,0,1-1.91-1.33c-1.19-4.3-6.37-5.56-11-7.24-2-.71-4.06-1.36-6.13-2-4.29-1.24-8.64-2.34-12.73-3.84-4.58-1.68-9.7-2.62-14-4.71-2.08-1-4.65-.67-7-.55-4.12.23-7.35-1.06-10.95-2.23C36.18,100.83,31.5,99.5,28,97.06a116.58,116.58,0,0,0-9.93-6.78A8.92,8.92,0,0,0,13.49,89c-5-.18-6.76-1.63-6.33-5.1.16-1.36.53-2.71.76-4.07.1-.71-.26-1.72,1-1.91a5.9,5.9,0,0,1,4,.64C21.6,84.33,30.67,89.66,42,92.76c15.83,4.34,30.87,9.93,46.07,15.22a115.72,115.72,0,0,1,13.09,5.68c2.41,1.2,4.82,2.39,7.22,3.56,4,1.93,8.11,3.79,10.49,7.1,1.62,2.23,5.14,1.38,7.82-1.79,4.78,2.62,7.52,6.39,12,9C139.21,131.77,139.74,132.29,139.67,132.64Z" style="fill:#e7c2a7"/><path d="M478.71,112c.36.37.26.94.16,1.61,0,.34-.1.74-.1,1.13-.86-.37-1.71-.74-2.54-1.13-6.53-3-12.27-6.39-18.3-9.49-3.2-1.61-6.53-1.86-9.66-2.92a102.38,102.38,0,0,1-11-4.32c-7.65-4.09-12.86-5.59-21.8-7.88a.8.8,0,0,1-.33-.62,2.33,2.33,0,0,1,.4,0,11.38,11.38,0,0,1,4.16.76c5.87,2.09,11.94,3.84,17.81,5.93a12.46,12.46,0,0,1,3.2,1.61,30.13,30.13,0,0,0,13.42,4.92c3.83.55,6,2.87,8.87,4.37,3.89,2,8.51,3.38,11.58,6.14a4.19,4.19,0,0,0,3.26.74,55.09,55.09,0,0,1-5.28-10.07c-.4-.94-1.29-2,.23-2.78a4.2,4.2,0,0,1,4.29.48,31.92,31.92,0,0,0,8.51,4.37c.89.28,1.42.67,1.48,1.1a26.33,26.33,0,0,1-11.35-5.42,2.56,2.56,0,0,0-2.54-.18c-1,.51-.3,1.08.07,1.7C475.28,105.31,475.9,108.94,478.71,112Z" style="fill:#e8b995"/><path d="M592.35,155.56c-5.11.09-10.22-.37-15.34.23,4.75-1.17,9.63-.18,14.41-.53,1.48-.11,3.53.6,4.29-.67s.13-2.53-.89-3.86c-2.57-3.38-6.43-5.59-10.65-8-6.83-3.84-13.39-7.91-21.14-10.76-5-1.82-10.69-2.67-15.76-4.39-4.32-1.47-9.47-1.93-13.19-3.56-7.68-3.33-16.42-4.5-24.5-6.73-4.22-1.17-8.34-2.87-12.93-3.68a25.16,25.16,0,0,0-3.76-.48c-3.69-.21-6.46-2.57-9.6-4-1.35-.6-.76-1.26.2-1.75s1.91-.8,3.59-1.47c.1.46-.3.94-1.32,1.38-1.88.83-1.39,1.52.17,2.23,3.07,1.4,5.94,3.1,9.89,3.19a7.46,7.46,0,0,1,2.24.53c.4.14.76.25,1.15.37,8.9,2.92,18.4,4.78,27.54,7.29,7.09,2,14.08,4,21.14,6.07,6.17,1.77,12.53,3.17,18.44,5.42a40.6,40.6,0,0,1,9.53,4.87,4.9,4.9,0,0,0,2,1.24c4.62.87,7,3.79,10.65,5.49s5.8,4.5,7.72,7.19S596.81,155.46,592.35,155.56Z" style="fill:#e8b995"/><path d="M704.16,166c-6.5,1-10.62-1.31-14.74-2.83-7.82-2.83-15.83-5.42-23.75-8.11a74.94,74.94,0,0,1-10.59-5.08c-4.42-2.34-7.85-5.19-11.51-8-2.77-2.14-7-2.34-11-2.11-6.86.39-13.72,0-20.58,0a5.39,5.39,0,0,1-2.54-.62c-3.56-2.69-8.31-3.75-13-5.08a34,34,0,0,1-6.83-3.13c-4-2.14-9.07-2.94-12.63-5.49a4.23,4.23,0,0,0-.92-.57c-2.18-.23-4.29-.51-5.28-2.09a.45.45,0,0,1-.13-.09,2,2,0,0,0-1.58-.55c-.46-.6-2-.74-2.74-1.1l0,0c-2.61-1-4.58-2.71-7.42-3.4-.56-.14-1-.69-.56-1.13a1.64,1.64,0,0,1,1.75-.07,39.73,39.73,0,0,0,8.21,2.28c1.15.18,1.88.11,2.11-.62-.2-.16-.4-.32-.63-.48-2.67-.76-4.42-2.07-5.28-4,0-.07-.07-.16-.1-.25s0,0-.07-.07a5.34,5.34,0,0,1-3.56-1,7.76,7.76,0,0,0-4.95-1.26c-2.9.16-4.12-.74-4.29-2.92-.16-2.37,1.48-4.6.46-7.06-.56-1.36,1.58-1.1,2.77-.69,3.3,1.2,5.15,3.54,8.28,5,4.68,2.14,8.64,5.22,13.59,6.9,1.25.41,2.47.9,3.69,1.36,3.5,1.36,7.06,2.74,11.25,3,3.4.28,6,2,9,3.06,5.67,2,11.61,3.61,17.25,5.68,11.61,4.28,23.58,8.09,34,13.88,2.18,1.22,4.35,2.83,7.42,3.4,2.37.44,2,2.39,3.07,3.59,1.85,2.14,3.69,3.47,7.52,2.6a9.85,9.85,0,0,1,8.08,1.59c5.44,3.4,11.35,6.44,16.89,9.77C697.73,162,699.61,164.47,704.16,166Z" style="fill:#e8b995"/><path d="M725.33,56.54a11,11,0,0,0-5.9,1.15c-3.4,2-7.92.44-11.54,2.07-1.15.53-2.67.76-3.79,1.56-2.18,1.59-4.55,2.87-7.78.94A7,7,0,0,0,694,62.1l.69-.25a13,13,0,0,1,3.13.57,5.19,5.19,0,0,0,4.72-.62c3.36-2.32,7.62-3.1,12.14-3.26a19.42,19.42,0,0,0,5.51-1.45A9.66,9.66,0,0,1,725.33,56.54Z" style="fill:#e8b995"/><path d="M838.45,89a19.66,19.66,0,0,1-2.9.74l0,0A9.84,9.84,0,0,1,838.45,89Z" style="fill:#e8b995"/><path d="M916.71,86.65a18.14,18.14,0,0,1-8.9,1.88c-15.63.07-31.27.09-46.93,0-3.2,0-6.1,1-9.1,1-4.12.09-8.38.28-12.5-.53a3.59,3.59,0,0,0-.49,0c2.67-.28,5.41.18,8.08.16,2.44,0,4.88.41,7.29-.32a21.94,21.94,0,0,1,6.27-.51c15,0,30-.09,45.08,0A41.91,41.91,0,0,0,916.71,86.65Z" style="fill:#e8b995"/><path d="M986.07,140.39a146.23,146.23,0,0,1-16.82-1.15c-7.59-1-15.17-2.16-22.92-2.11-6.89,0-11.58-3-17-5.06-7.19-2.74-14.25-5.59-20.05-9.75-1.71-1.2-2.9-2.69-5-3.7-5.34-2.48-11.48-3.45-17.31-5-.33-.07-.66-.16-1-.25-6.5-1.75-13.26-3-19.72-4.8-1.91-.53-3.86-.46-5.64-.87-8-1.88-15.93-4-23.91-5.88-3.5-.85-7.26-1.15-10.39-2.69-.66-.34-2.28-.53-2.7.39-.36.74.53,1.33,1.45,1.77a68.52,68.52,0,0,1,10,6.11c.86.6,2.14,1.08,1.35,2-1,1.1-2.14.34-3.4,0-12.24-2.94-23.19-7.86-35.26-11a225.56,225.56,0,0,1-27.08-8.57c-7.88-3.19-15-7.35-22.43-11.08a28.48,28.48,0,0,0-7.35-3c-1.06-.18-2.11-.32-3.17-.48a.5.5,0,0,1-.16,0c-3.36-.18-6.6-1-10-1.2-3.83-.3-4.81-2.55-4.68-4.78.2-3.7,1.88-7.33,1-11.1-.3-1.17,1.62-.92,2.41-1.45l.33.14a13,13,0,0,0-.86,2.3,18.16,18.16,0,0,0-.66,3.22c-.26,1.77-.36,3.54-.53,5.31-.07.62-.13,1.26-.23,1.88a.16.16,0,0,0,0,.11,3.62,3.62,0,0,0-.07.8,2.46,2.46,0,0,0,.2,1.24l0,0c.49,1.15,1.91,1.68,4.55,2.07l1.39.21.16,0a59.91,59.91,0,0,0,10,1h.16c5.74,1,9.86,3.84,14.28,6.23a188.4,188.4,0,0,0,17.31,8.09c9.76,4,20.48,6.71,30.9,9.75,6.33,1.84,12.37,4.09,18.5,6.21,4.12,1.45,8.61,2.07,12.86,3.36a16.76,16.76,0,0,0-4.85-4l-5.18-3c-1.12-.67-2.24-1.54-1.39-2.62s2.54-.94,3.89-.53c8.48,2.51,17.35,4.21,26,6.48,7.85,2.07,16.16,3.26,24.08,5.19,4.32,1.06,8.54,2.28,12.86,3.31,1.52.37,3,.71,4.58,1A37.26,37.26,0,0,1,911,122.23c5.54,4.5,13.85,6.34,20.28,9.91,8.15,4.5,17.78,4.09,27,5.1,8.44.92,16.82,2.23,25.59,2.44-6.76-4-13.52-7.93-20.51-11.7-.86-.46-1.62-1.29-3-.41-2.11,1.31-4.42.83-6.7.21-6.43-1.7-12.24-4.28-18.47-6.21-7.68-2.39-15-5.33-22.56-7.91-2.61-.9-5.21-1.75-7.92-2.53-3.17-.92-6-2.34-9.07-3.36-7.49-2.44-15.27-4.23-22.92-6.25-10.32-2.74-20.68-5.4-30.9-8.3-1.68-.48-3.46-.92-5-1.54-.86-.34-2.24-.64-1.68-1.49,5.31,1.63,10.26,3.63,16.09,4.6,7,1.15,13.62,3.49,20.05,5.82,2.64,1,5.44.67,8.18,1.45,7.92,2.32,15.76,4.53,23.25,7.54,3.83,1.54,7.85,2.78,11.91,4.07,2.7.85,5.38,1.7,8,2.64,10.32,3.72,20.84,7.19,31.36,10.66,2,.64,4.95,2.48,5.84-1.06.16-.74,1.58-.3,2.28.14C969.71,130.87,978.22,134.94,986.07,140.39Z" style="fill:#e8b995"/><path d="M1109.91,80.14c-1.88,1.63-4.62,1.88-7.49,1.82l.23-.09a19.27,19.27,0,0,0,7.09-1.65Z" style="fill:#e8b995"/><path d="M1115,78.9c-.66,1.22-2.08.87-3.4.8A9,9,0,0,0,1115,78.9Z" style="fill:#e8b995"/><path d="M1139.76,73.57a19.28,19.28,0,0,1-7.39,2.53c-3.63.46-7.12,1.79-10.95,1.43.3-.11.59-.23.89-.32,4.39-.62,9-.55,12.89-2.48C1136.59,74,1138.41,74.19,1139.76,73.57Z" style="fill:#e8b995"/><path d="M1149.62,71.41c-1.65,2.37-4.72,1.72-7.52,1.65C1144.77,72.86,1147.61,73,1149.62,71.41Z" style="fill:#e8b995"/><path d="M1203.67,62.26a1,1,0,0,1-1,.85c-7.39.39-14.25,3.13-21.9,2.28a2.27,2.27,0,0,1,.49-.21c7.65.46,14.68-1.61,21.93-2.74Z" style="fill:#e8b995"/><path d="M1216.07,60.47c-.82,1.22-2.31,1.7-4.42,1.63-2.41-.07-4.85,0-7.26,0a16.54,16.54,0,0,1,4.25-.21A12.88,12.88,0,0,0,1216.07,60.47Z" style="fill:#e8b995"/><path d="M1326.1,73.29a3.7,3.7,0,0,1-.46-.16,48,48,0,0,0-6.17-3.22c-1.29-.46-1.81-.85-1.75-1.77a6.65,6.65,0,0,1,.76.23c1.32,1.56,3.83,2.21,5.77,3.31C1325.07,72.17,1326.29,72.44,1326.1,73.29Z" style="fill:#e8b995"/><path d="M1356.54,86.35c-1.68-.28-3.2-.74-3.83-2a.62.62,0,0,1,.23.07,13.11,13.11,0,0,0,3.43,1.63Z" style="fill:#e8b995"/><path d="M1471.11,109.54c-2.67,0-5.41.23-7.75-1.13l.49.07a24,24,0,0,0,6.6,1C1470.65,109.47,1470.88,109.49,1471.11,109.54Z" style="fill:#e8b995"/><path d="M1475.56,109.75a4.72,4.72,0,0,1-4.19-.16l.13,0A9,9,0,0,0,1475.56,109.75Z" style="fill:#e8b995"/><path d="M1480.54,108.71c-.82.92-2.14.85-3.46.8a9.05,9.05,0,0,0,3.3-.76A.45.45,0,0,1,1480.54,108.71Z" style="fill:#e8b995"/><path d="M1485.19,107.59a6.22,6.22,0,0,1-3.6.85A19.68,19.68,0,0,0,1485.19,107.59Z" style="fill:#e8b995"/><path d="M1496.44,104.62c-2.77,1.63-6.17,2.11-9.6,2.55A58.28,58.28,0,0,0,1496.44,104.62Z" style="fill:#e8b995"/><path d="M1507.72,146.68c-.26,1.08-1.25.6-2,.18-3-1.72-6.2-3.36-9.1-5.17-3.36-2.14-7.52-3-11.64-4-5.9-1.4-11,.18-14,3.38-2,2.09-4.78,2.21-7.19,2.94-1.65.51-3.79.87-5.34,1.49-2.21.87-3.56.62-5.64-.09-6.23-2.09-13-3.59-19-5.91-10.95-4.25-22.43-7.7-33.8-11.24-7.12-2.23-14.08-5.06-21.9-6.14a4.41,4.41,0,0,1-3-1.68c-.46-.6-1-1.2-1.45-1.77s-1-1.17-1.52-1.75-1.25-1.36-1.91-2c-.43-.46-.89-.9-1.35-1.31-.66-.67-1.39-1.29-2.11-1.91a.76.76,0,0,0-.23-.18c-.53-.46-1.09-.92-1.68-1.36-.36-.3-.76-.62-1.19-.92-.63-.46-1.29-.92-1.95-1.36s-1.25-.85-1.91-1.24-1.32-.8-2-1.2c-5.47-3.08-10.45-6.62-16.52-9.19s-13.16-3-20.15-3.4c-4.82-.25-9.63-.71-14.45-1.1-1.58-.11-2.47-.76-2-1.88,2.18-5-.82-9-5.11-12.8a8.82,8.82,0,0,1-1.91-2.09c-.76-1.4-.56-2.3,2.24-2.55,6.3-.6,12.53-.09,18.8.09,2.41.07,4.45,1.59,7.09,1.06h.17a.19.19,0,0,1,0,.12,5.79,5.79,0,0,1-4.12.34,72.4,72.4,0,0,0-20.32-.83c-2.7.21-3.2.94-1.88,2.48.69.8,1.48,1.52,2.28,2.28,3.3,3.15,5.31,6.55,4.25,10.53-.46,1.79.66,2.46,3.17,2.62,7.19.51,14.38,1.2,21.57,1.72,6.7.48,12.27,3.17,17.41,6.07,3.59,2,7.06,4.11,10.55,6.21a60.26,60.26,0,0,1,11.44,8.5,37.68,37.68,0,0,1,3.07,3.38c2.08,2.64,4.95,4,9,5.22,8.25,2.37,16.52,4.76,24.6,7.42,11.87,4,23.81,7.79,35.59,11.88,3.73,1.31,7.95,1.88,11.58,3.47a2.39,2.39,0,0,0,1.48.23c4.68-1.36,10.12-1.65,13.82-4.32,6.7-4.83,12.14-5.49,21-2.69a46.17,46.17,0,0,1,10.32,5,19.37,19.37,0,0,0,6.27,2.69c-1.42-3.08-3.69-5.33-5.64-7.58-2.31-2.67-4.62-5.33-7-8-.82-.9-1.65-1.91-3.23-1.79-5.47.34-10.55-1.36-16-1.31-6.2.07-12.37.34-18.5,1a33.2,33.2,0,0,1-14.28-1.36c-4.22-1.45-8.87-2.09-13.26-3.38a284.49,284.49,0,0,1-26.88-9.84c-3.07-1.22-6.1-2.44-9.2-3.63-8-3.06-15.5-6.55-23.28-9.79a23.42,23.42,0,0,1-8.77-6.21c-2.34-2.62-6.13-4.44-9.1-6.76-.92-.74-2.34-1.22-2.51-2.34a1.08,1.08,0,0,1,.23-.28c2.87,2,5.41,4.37,8.71,5.91s4,3.91,6.33,5.7c4.62,3.52,10.75,5.33,16.16,7.93,6,2.87,12.66,5.08,19,7.65l4.55,1.82c5.28,2.14,10.62,4.23,16,6.27,7.92,3,16.59,4.62,24.83,7,5.74,1.65,11.71.37,17.55.07,7.12-.39,14.21-1.24,21.3.53,2,.48,4.45.21,6.66.09a4.78,4.78,0,0,1,4.25,1.61,149.88,149.88,0,0,0,12.53,14.18C1508.34,144.38,1508,145.63,1507.72,146.68Z" style="fill:#e8b995"/><path d="M536.65,154.73c-3-.16-5.84-.9-8.81-1.17a21.7,21.7,0,0,1-7.22-2.07c-10.32-4.9-20.81-9.63-31.46-14.11q-11.77-5-23.88-9.61c-6.23-2.37-11.35-5.93-17.12-8.78-.73-.37-1.22-1-2.31-1-.82.78-.07,1.45.56,2,4.95,4,8.94,8.6,14.35,12.41,3.66,2.6,6.76,5.59,10.06,8.44,2,1.75,1.88,3.63,1.06,5.49s-3.17.71-4.88.71c1.35-.23,3.79.44,3.86-.34.1-1.63,1.85-3.31-.36-5.06-5.77-4.55-11.35-9.22-16.85-13.91-3-2.57-5.84-5.31-8.74-8-1-.9-1.48-2-.3-2.74,1.62-1,2.31.44,3.43,1,7.32,3.54,14,7.65,21.8,10.76,7.42,3,15.24,5.49,22.2,8.92,5.54,2.71,11.38,5.06,17,7.7C517.49,149.4,526.07,153.56,536.65,154.73Z" style="fill:#e7ba96"/><path d="M912.62,113.65H889.87c-4.32-1-8.54-2.25-12.86-3.31-7.92-1.93-16.23-3.13-24.08-5.19-8.61-2.28-17.48-4-26-6.48-1.35-.41-3-.55-3.89.53s.26,2,1.39,2.62l5.18,3a16.76,16.76,0,0,1,4.85,4c-4.25-1.29-8.74-1.91-12.86-3.36-6.13-2.11-12.17-4.37-18.5-6.21-10.42-3-21.14-5.7-30.9-9.75a188.4,188.4,0,0,1-17.31-8.09c-4.42-2.39-8.54-5.22-14.28-6.23h-.16c-.36-.32-.79-.76-1.09-.74-4.58.44-8.08-1.72-12.17-2.41-1.39-.23-2.67-.74-3-1.45a3.62,3.62,0,0,1,.07-.8.16.16,0,0,1,0-.11c0-.07.07-.14.13-.21,2.11-2.46,1.25-5,1.15-7.42-.13-2.69,1.15-3.65,4.85-3.24,1.22.34,2.47.64,3.66,1,7,2.21,13.82,4.67,20.94,6.6.79.21,1.55.44,2.31.64l.3.09a7.81,7.81,0,0,1,.82.25l4.35,1.33s0,0,.07,0l1.52.48c3.73,1.22,7.45,2.46,11.28,3.54,7.62,2.16,15.34,4.34,22.92,6.67,9.93,3.06,20.38,5.29,30,8.87a20.29,20.29,0,0,0,4.85,1.29l1.62.62h0c-.56.85.82,1.15,1.68,1.49,1.58.62,3.36,1.06,5,1.54,10.22,2.9,20.58,5.56,30.9,8.3,7.65,2,15.43,3.82,22.92,6.25,3.1,1,5.9,2.44,9.07,3.36C907.41,111.91,910,112.76,912.62,113.65Z" style="fill:#e8c2a7"/><path d="M775.66,72.74c-3.83-1.08-7.55-2.32-11.28-3.54,2,.6,4,1.17,6,1.75,14.38,4.18,28.66,8.57,43.37,12.25a165.62,165.62,0,0,1,19.72,6.37,20.29,20.29,0,0,1-4.85-1.29c-9.63-3.59-20.08-5.81-30-8.87C791,77.09,783.28,74.9,775.66,72.74Z" style="fill:#e8c2a7"/><path d="M986.07,140.39a146.23,146.23,0,0,1-16.82-1.15c-7.59-1-15.17-2.16-22.92-2.11-6.89,0-11.58-3-17-5.06-7.19-2.74-14.25-5.59-20.05-9.75-1.71-1.2-2.9-2.69-5-3.7-5.34-2.48-11.48-3.45-17.31-5-.33-.07-.66-.16-1-.25-6.5-1.75-13.26-3-19.72-4.8-1.91-.53-3.86-.46-5.64-.87-8-1.88-15.93-4-23.91-5.88-3.5-.85-7.26-1.15-10.39-2.69-.66-.34-2.28-.53-2.7.39-.36.74.53,1.33,1.45,1.77a68.52,68.52,0,0,1,10,6.11c.86.6,2.14,1.08,1.35,2-1,1.1-2.14.34-3.4,0-12.24-2.94-23.19-7.86-35.26-11a225.56,225.56,0,0,1-27.08-8.57c-7.88-3.19-15-7.35-22.43-11.08a28.48,28.48,0,0,0-7.35-3c-1.06-.18-2.11-.32-3.17-.48a.5.5,0,0,1-.16,0c-2.37-.34-4.72-.67-7-1.2l-.16,0c-.89-.21-1.78-.44-2.67-.71a7.5,7.5,0,0,1-3.26-1.56l0,0c-.63-.69-.59-1.59-.13-3,.1-.34.2-.69.26-1a22.09,22.09,0,0,0,.53-5.31V62c0-1.49.07-2.3.66-2.76s1.78-.57,4.06-.67h.3a116.33,116.33,0,0,1,16.69,4.85c3.46,1.26,7,2.46,10.59,3.61-.76-.21-1.52-.44-2.31-.64-7.12-1.93-14-4.39-20.94-6.6-1.19-.37-2.44-.67-3.66-1-3.69-.41-5,.55-4.85,3.24.1,2.44,1,5-1.15,7.42-.07.07-.13.14-.13.21a.16.16,0,0,0,0,.11,3.62,3.62,0,0,0-.07.8c.36.71,1.65,1.22,3,1.45,4.09.69,7.59,2.85,12.17,2.41.3,0,.73.41,1.09.74h.16c5.74,1,9.86,3.84,14.28,6.23a188.4,188.4,0,0,0,17.31,8.09c9.76,4,20.48,6.71,30.9,9.75,6.33,1.84,12.37,4.09,18.5,6.21,4.12,1.45,8.61,2.07,12.86,3.36a16.76,16.76,0,0,0-4.85-4l-5.18-3c-1.12-.67-2.24-1.54-1.39-2.62s2.54-.94,3.89-.53c8.48,2.51,17.35,4.21,26,6.48,7.85,2.07,16.16,3.26,24.08,5.19,4.32,1.06,8.54,2.28,12.86,3.31h22.76c-2.61-.9-5.21-1.75-7.92-2.53-3.17-.92-6-2.34-9.07-3.36-7.49-2.44-15.27-4.23-22.92-6.25-10.32-2.74-20.68-5.4-30.9-8.3-1.68-.48-3.46-.92-5-1.54-.86-.34-2.24-.64-1.68-1.49,5.31,1.63,10.26,3.63,16.09,4.6,7,1.15,13.62,3.49,20.05,5.82,2.64,1,5.44.67,8.18,1.45,7.92,2.32,15.76,4.53,23.25,7.54,3.83,1.54,7.85,2.78,11.91,4.07,2.7.85,5.38,1.7,8,2.64,10.32,3.72,20.84,7.19,31.36,10.66,2,.64,4.95,2.48,5.84-1.06.16-.74,1.58-.3,2.28.14C969.71,130.87,978.22,134.94,986.07,140.39Z" style="fill:#e8c2a7"/><path d="M1507.72,146.68c-.26,1.08-1.25.6-2,.18-3-1.72-6.2-3.36-9.1-5.17-3.36-2.14-7.52-3-11.64-4-5.9-1.4-11,.18-14,3.38-2,2.09-4.78,2.21-7.19,2.94-1.65.51-3.79.87-5.34,1.49-2.21.87-3.56.62-5.64-.09-6.23-2.09-13-3.59-19-5.91-10.95-4.25-22.43-7.7-33.8-11.24-7.12-2.23-14.08-5.06-21.9-6.14a4.41,4.41,0,0,1-3-1.68c-.46-.6-1-1.2-1.45-1.77s-1-1.17-1.52-1.75-1.25-1.36-1.91-2c-.43-.46-.89-.9-1.35-1.31-.66-.67-1.39-1.29-2.11-1.91a.76.76,0,0,0-.23-.18c-.53-.46-1.09-.92-1.68-1.36-.36-.3-.76-.62-1.19-.92-.63-.46-1.29-.92-1.95-1.36s-1.25-.85-1.91-1.24-1.32-.8-2-1.2c-5.47-3.08-10.45-6.62-16.52-9.19s-13.16-3-20.15-3.4c-4.82-.25-9.63-.71-14.45-1.1-1.58-.11-2.47-.76-2-1.88,2.18-5-.82-9-5.11-12.8a8.82,8.82,0,0,1-1.91-2.09c-.76-1.4-.56-2.3,2.24-2.55,6.3-.6,12.53-.09,18.8.09,2.41.07,4.45,1.59,7.09,1.06h.17a6.84,6.84,0,0,1,1.19,0,22.62,22.62,0,0,1,9.8,3.24c3.89,2.11,8,4,11.64,6.41.36.25.86.51,1,.85a.41.41,0,0,1,0,.44v0c2.87,2,5.41,4.37,8.71,5.91s4,3.91,6.33,5.7c4.62,3.52,10.75,5.33,16.16,7.93,6,2.87,12.66,5.08,19,7.65l4.55,1.82c5.28,2.14,10.62,4.23,16,6.27,7.92,3,16.59,4.62,24.83,7,5.74,1.65,11.71.37,17.55.07,7.12-.39,14.21-1.24,21.3.53,2,.48,4.45.21,6.66.09a4.78,4.78,0,0,1,4.25,1.61,149.88,149.88,0,0,0,12.53,14.18C1508.34,144.38,1508,145.63,1507.72,146.68Z" style="fill:#e8c2a7"/><path d="M704.16,166c-6.5,1-10.62-1.31-14.74-2.83-7.82-2.83-15.83-5.42-23.75-8.11a74.94,74.94,0,0,1-10.59-5.08c-4.42-2.34-7.85-5.19-11.51-8-2.77-2.14-7-2.34-11-2.11-6.86.39-13.72,0-20.58,0a5.39,5.39,0,0,1-2.54-.62c-3.56-2.69-8.31-3.75-13-5.08a34,34,0,0,1-6.83-3.13c-4-2.14-9.07-2.94-12.63-5.49a4.23,4.23,0,0,0-.92-.57c-1.65-.8-3.89-1-5.28-2.09a.45.45,0,0,1-.13-.09,2,2,0,0,0-1.58-.55c-.46-.6-2-.74-2.74-1.1l0,0c-.36-.21-.49-.46-.23-.87a1.54,1.54,0,0,1,.4-.41,1.52,1.52,0,0,1,.4-.18,2.65,2.65,0,0,1,1.22-.09,12.91,12.91,0,0,1,2,.34s0,0,.07,0c.26.07.53.11.79.16.49.07.79.51,1.45.32,0-.92-1-1.4-1.75-2l-.26-.21c-.2-.16-.4-.32-.63-.48-1.78-1.26-3.92-2.32-5.18-4l-.2-.25s0,0-.07-.07a5.34,5.34,0,0,1-3.56-1,7.76,7.76,0,0,0-4.95-1.26c-2.9.16-4.12-.74-4.29-2.92-.16-2.37,1.48-4.6.46-7.06-.56-1.36,1.58-1.1,2.77-.69,3.3,1.2,5.15,3.54,8.28,5,4.68,2.14,8.64,5.22,13.59,6.9,1.25.41,2.47.9,3.69,1.36,3.5,1.36,7.06,2.74,11.25,3,3.4.28,6,2,9,3.06,5.67,2,11.61,3.61,17.25,5.68,11.61,4.28,23.58,8.09,34,13.88,2.18,1.22,4.35,2.83,7.42,3.4,2.37.44,2,2.39,3.07,3.59,1.85,2.14,3.69,3.47,7.52,2.6a9.85,9.85,0,0,1,8.08,1.59c5.44,3.4,11.35,6.44,16.89,9.77C697.73,162,699.61,164.47,704.16,166Z" style="fill:#e8c2a7"/><path d="M236.5,75.32a7.37,7.37,0,0,1-5.74,2.16c-3.2-.14-5.67,1.26-8.48,1.56-5.38.55-10.26,2.09-15.43,3-4.29.78-9.4-.12-12.86,2.67-.63.53-1.65.44-2.57.53-8.28.76-16.36-.85-24.44-1.43-4.75-.34-9.53-.39-14.25-.8-16-1.4-32.25-.23-48.18-1.36C91.88,80.81,79.32,80,66.62,79.52c-4.52-.16-9.2-.76-13.82-.92-1,0-1.35-.44-1.52-1v0h5.57c1.75.71,3.79-.16,5.54.55,15.83.41,31.63,1.33,47.43,2.11,5.08.25,10.22.34,15.3.62,14.64.76,29.29,1.33,43.9,2.21,13.42.83,26.55.44,39.48-2.71,7.75-1.86,15.76-3.26,23.71-4.8a33.55,33.55,0,0,1,4.06-.21Z" style="fill:#e9bd8c"/><path d="M363.9,114.6c-2.7,1.2-5.21-.46-7.85-.32-.17,0-.53-.34-.66-.62a.26.26,0,0,1-.07-.21c.26-1.31-.79-2.62-.07-3.93a4.29,4.29,0,0,1,3.46-.41,1.65,1.65,0,0,1,1.12,1,21.26,21.26,0,0,0,3,3.56C363.18,114,363.54,114.3,363.9,114.6Z" style="fill:#e4c1a2"/><path d="M302.2,62.1a.31.31,0,0,1-.13,0l-.33.14a28,28,0,0,1-9.83,2c.2-.09.43-.16.63-.23A25.18,25.18,0,0,1,302.2,62.1Z" style="fill:#f0ca8d"/><path d="M359.13,109.58l-3.86-.07" style="fill:none"/><path d="M62.38,78.09c-1.84-.21-3.86.5-5.53-.53C58.69,77.74,60.71,77.05,62.38,78.09Z" style="fill:#e8b995"/><path d="M917.21,86.37a5.35,5.35,0,0,1-.49.28,18.14,18.14,0,0,1-8.9,1.88c-15.63.07-31.27.09-46.93,0-3.2,0-6.1,1-9.1,1-4.12.09-8.38.28-12.5-.53a3.59,3.59,0,0,0-.49,0l-.33,0a19.66,19.66,0,0,1-2.9.74,2.13,2.13,0,0,1-.66,0,9.9,9.9,0,0,1-1.45-.12,20.29,20.29,0,0,1-4.85-1.29c-9.63-3.59-20.08-5.81-30-8.87-7.59-2.32-15.3-4.5-22.92-6.67-3.83-1.08-7.55-2.32-11.28-3.54l-1.52-.48s0,0-.07,0c-1.45-.46-2.9-.92-4.35-1.33a7.81,7.81,0,0,0-.82-.25l-.3-.09c-.76-.21-1.52-.44-2.31-.64-7.12-1.93-14-4.39-20.94-6.6-1.19-.37-2.44-.67-3.66-1l-.66-.21c-1.32-.32-2.84-.48-3.2-1.63a.3.3,0,0,1-.07-.28.07.07,0,0,1,0-.07c-.4,0-.76,0-1.12,0a12.77,12.77,0,0,0-4.72.6,6.87,6.87,0,0,0-1.19.55c-3.4,2-7.92.44-11.54,2.07-1.15.53-2.67.76-3.79,1.56-2.18,1.59-4.55,2.87-7.78.94A7,7,0,0,0,694,62.1l.69-.25c4.68-1.68,9.83-2.44,14.84-3.56,2.47-.55,5.14-.76,7.45-1.65,6.6-2.57,12,0,17.84,1.7,12.47,3.56,24.8,7.42,37.23,11.08,10.69,3.15,21.44,6.23,32,9.56,9.73,3.06,19.43,6.3,29.52,8.64,5.74,1.33,12.27.51,18.44.18,1,0,2-.3,3.1-.32,13.52-.21,27.11-.07,40.6-.69C902.93,86.46,910.08,86.79,917.21,86.37Z" style="fill:#e8bd90"/><path d="M1352.55,84.14h-1.12c-.26,0-.56,0-.82,0s-.69,0-1.06,0h-.16c-4-2.57-8.81-4.46-12.73-7.15-2.61-1.75-6.23-2.32-9.5-3.36-.36-.11-.73-.23-1.05-.37a3.7,3.7,0,0,1-.46-.16,48,48,0,0,0-6.17-3.22c-1.29-.46-1.81-.85-1.75-1.77a6.65,6.65,0,0,1,.76.23,115.19,115.19,0,0,1,20.25,8.11c4.22,2.11,8.71,3.93,12.57,6.37C1351.92,83.25,1352.51,83.55,1352.55,84.14Z" style="fill:#e7c093"/><path d="M740.7,75.34a21.78,21.78,0,0,1-3,0,.5.5,0,0,1-.16,0c-3.36-.18-6.6-1-10-1.2-3.83-.3-4.81-2.55-4.68-4.78.2-3.7,1.88-7.33,1-11.1-.3-1.17,1.62-.92,2.41-1.45a.58.58,0,0,0,.23-.21s0,0,.07,0c1.15.67,2.37,1.33,3.53,2l.36.21c-3.69-.41-5,.55-4.85,3.24.1,2.44,1,5-1.15,7.42-.07.07-.13.14-.13.21a.87.87,0,0,0-.1.92c.36.71,1.65,1.22,3,1.45,4.09.69,7.59,2.85,12.17,2.41.3,0,.73.41,1.09.74Z" style="fill:#e9bf9f"/><path d="M573.23,121.29a1.86,1.86,0,0,1-2.21-.76,3.54,3.54,0,0,0-.82-.69s0,0-.07,0a3.9,3.9,0,0,0-2-.34,7.53,7.53,0,0,0-1.22.09,2.32,2.32,0,0,0-.4,0v.14c.1,1.08,2.8.64,2.44,1.91a11.16,11.16,0,0,1-2.57-.6l0,0c-2.61-1-4.58-2.71-7.42-3.4-.56-.14-1-.69-.56-1.13a1.64,1.64,0,0,1,1.75-.07,39.73,39.73,0,0,0,8.21,2.28c1.15.18,1.88.11,2.11-.62a.93.93,0,0,0,.1-.28c1.45.18,2.94.37,3.13,1.65C573.72,120.09,574,120.89,573.23,121.29Z" style="fill:#e8bf9e"/><path d="M1203.74,62.08a.42.42,0,0,1-.07.18,1,1,0,0,1-1,.85c-7.39.39-14.25,3.13-21.9,2.28a2.27,2.27,0,0,1,.49-.21c2.9-1.29,6.37-1,9.53-1.56C1195,62.84,1199.22,61.69,1203.74,62.08Z" style="fill:#ebc08a"/><path d="M1141,73.36a5.78,5.78,0,0,1-.66.46,19.28,19.28,0,0,1-7.39,2.53c-3.63.46-7.12,1.79-10.95,1.43.3-.11.59-.23.89-.32A68.19,68.19,0,0,1,1141,73.36Z" style="fill:#eabe8c"/><path d="M1216.4,59.92c-.1.18-.2.37-.3.53s0,0,0,0c-.82,1.22-2.31,1.7-4.42,1.63-2.41-.07-4.85,0-7.26,0h-.66C1207.73,60.65,1212.31,60.93,1216.4,59.92Z" style="fill:#ebc08a"/><path d="M1497.23,104.27a5.6,5.6,0,0,1-1,.6c-2.77,1.63-6.17,2.11-9.6,2.55l-1.32.16C1488.75,105.44,1493.11,105.07,1497.23,104.27Z" style="fill:#f1c78e"/><path d="M1150.48,71.18c-.1.16-.16.32-.26.46l0,0c-1.65,2.37-4.72,1.72-7.52,1.65a10.07,10.07,0,0,0-1.68,0A27.42,27.42,0,0,1,1150.48,71.18Z" style="fill:#eabe8c"/><path d="M570.52,117.81a6.09,6.09,0,0,1-.73-.21c-2.67-.76-4.42-2.07-5.28-4,0-.07-.07-.16-.1-.25a3,3,0,0,1-.23-.55,8.23,8.23,0,0,0,1.29.8C567.52,114.8,570.06,115.68,570.52,117.81Z" style="fill:#e8bf9e"/><path d="M576.85,125c-.26,0-.49,0-.76-.09-2.18-.23-4.29-.51-5.28-2.09a1.76,1.76,0,0,1-.3-.57C572.73,123.06,576.13,122.5,576.85,125Z" style="fill:#e8bf9e"/><path d="M1110.91,80a2.84,2.84,0,0,1-.43.39c-1.88,1.63-4.62,1.88-7.49,1.82l.23-.09C1105.6,81.06,1107.94,79.94,1110.91,80Z" style="fill:#f1c78c"/><path d="M1471.27,109.54h-.16c-2.67,0-5.41.23-7.75-1.13l.49.07C1466.36,108.67,1469.26,107.56,1471.27,109.54Z" style="fill:#f1c78e"/><path d="M1115.66,78.9a.69.69,0,0,1-.13.25c-.66,1.22-2.08.87-3.4.8a3.56,3.56,0,0,0-1.22,0C1112.16,78.92,1113.88,78.85,1115.66,78.9Z" style="fill:#f1c78c"/><path d="M1356.54,86.35c-1.68-.28-3.2-.74-3.83-2a.69.69,0,0,1-.13-.25,4.48,4.48,0,0,1,3.79,2Z" style="fill:#e7c093"/><path d="M1485.36,107.58a3.17,3.17,0,0,1-.33.25,6.22,6.22,0,0,1-3.6.85l-.82,0C1481.43,106.68,1483.77,107.94,1485.36,107.58Z" style="fill:#f1c78e"/><path d="M1480.61,108.68a1.71,1.71,0,0,1-.23.28c-.82.92-2.14.85-3.46.8h0a7.58,7.58,0,0,0-1,0C1477.11,108.7,1478.83,108.61,1480.61,108.68Z" style="fill:#f1c78e"/><path d="M1475.86,109.78l-.43.21h0a4.72,4.72,0,0,1-4.19-.16l-.1,0Z" style="fill:#f1c78e"/><path d="M301,62.45A43.25,43.25,0,0,1,293.89,64C295.77,63.62,298.24,63.09,301,62.45Z" style="fill:#e8b995"/><path d="M437,82.3l-9.14-1.15c2.31.14,4.58.48,6.79.83C435.44,82.1,436.19,82.21,437,82.3Z" style="fill:#e8b995"/><path d="M762.86,66.72v2s0,0-.07,0l-4.35-1.33a7.81,7.81,0,0,0-.82-.25l-.3-.09v-.3Z" style="fill:#e8bd90"/></svg>