<svg id="9858feb8-eece-4bec-9719-5d38d76ae3ec" data-name="Montañas Intermedias" xmlns="http://www.w3.org/2000/svg" viewBox="0 0 1612.92 597.43"><title>proximasArtboard 1</title><path d="M1610.78,150.08V356.14H0V179.69H.79V153.07l47.13,8.67a7.06,7.06,0,0,0,3.1,0c12.3-3.31,25.16-4.76,38.16-5.93,13.92-1.24,27.84-2.18,41.88-2.14l29.62-.53c16-.32,31.89-1.33,47.79-2.6,18-1.45,35.75-3.63,53.56-5.75,16.36-2,32.65-4.34,49-6.23,10.72-1.22,21.44-2.39,32.35-2.64,15.9-.37,31.79-.76,47.69-1,2.34,0,4.68-.34,7-.51a2.64,2.64,0,0,1,1.72-.41,26.94,26.94,0,0,0,4.91.18A109,109,0,0,1,433,138.87c10.92,3.45,22.69,4.62,34.2,6.5q28.59,3.34,57.22,6.41c4.16.46,8.25,1.13,12.47,1.2a164.44,164.44,0,0,0,34,.94c1.95-.14,3.92-.07,5.9,0,3,.14,6.07.18,9.1,0,16.72-.8,32.75,1.77,48.61,5,11,2.25,22,4.6,32.72,7.45a27.17,27.17,0,0,0,7.39.76c14.74-.16,29.52-.11,44.26.62,17.71.87,35.52.94,53.23,2,4.39.25,8.67-.62,12.93-1.17,33-4.41,66.12-8.46,99.17-12.66q46.11-5.9,92.25-11.63c22.59-2.76,45.12-5.79,67.71-8.64a24.18,24.18,0,0,1,9.27.55c11.74,2.92,23.84,2.74,35.95,1.45,16.52-1.77,32.85-4.41,49.47-5.91a354,354,0,0,1,47.36-.6c2.37.09,4.75.11,7.12.14,14.74.11,29.45,1,44.16,1.52,5.8.23,11.58.46,17.38.64,18.27.57,36.54,1.31,54.65,3.49,19.59,2.37,39.31,4.34,58.93,6.62q33.74,3.93,67.48,8c32.09,3.82,63.72,9.33,95.77,13.35,13.26,1.65,26.62,3.08,39.77-.67a198.52,198.52,0,0,0,25-8.8c3.92-1.7,7.88-3.33,11.74-5.1C1609.53,149.79,1609.89,149.49,1610.78,150.08Z" style="fill:#b99e80"/></svg>